<svg width="16" height="159" viewBox="0 0 16 159" fill="none" xmlns="http://www.w3.org/2000/svg">
<g clip-path="url(#clip0_11_45)">
<mask id="mask0_11_45" style="mask-type:luminance" maskUnits="userSpaceOnUse" x="0" y="0" width="16" height="159">
<path d="M15.5 158.156L15.5 0.15625L0.5 0.15625L0.5 158.156H15.5Z" fill="white"/>
</mask>
<g mask="url(#mask0_11_45)">
<path d="M7.64722 1.17234C6.84317 18.9007 6.17313 36.6457 5.62816 54.3824C5.08319 72.1189 4.67223 90.0069 4.37741 107.819C4.2166 117.809 4.02005 127.799 4.01112 137.789C4.01112 138.528 4.2702 139.663 5.01172 140.066C5.75323 140.469 6.08378 139.721 6.09272 139.133C6.3518 121.38 6.46794 103.626 6.86103 85.8732C7.25412 68.1197 7.77229 50.2402 8.4334 32.4278C8.79969 22.4378 9.21065 12.4562 9.65734 2.46625C9.69308 1.76048 9.38933 0.643013 8.68355 0.264922C7.97777 -0.113169 7.66509 0.601003 7.63828 1.17234H7.64722Z" fill="#D4FF2A"/>
<path d="M13.5615 119.935C11.882 126.262 10.1577 132.572 8.36201 138.873C7.48649 141.957 6.5931 145.032 5.69078 148.107C5.06541 150.25 4.63658 153.905 2.02788 154.762L3.51091 157.089C3.18929 144.116 2.8498 131.135 2.44778 118.162C2.42991 117.465 2.2155 116.406 1.50972 116.02C0.830742 115.65 0.482322 116.331 0.491256 116.902C0.777139 129.866 1.12556 142.822 1.49185 155.787C1.50972 156.324 1.93855 158.467 2.97488 158.114C5.61931 157.223 6.33402 154.417 7.00406 152.14C7.98679 148.796 8.95165 145.444 9.90758 142.091C11.8105 135.387 13.6509 128.665 15.4377 121.935C15.6253 121.212 15.3394 120.17 14.7855 119.633C14.2673 119.137 13.7402 119.263 13.5615 119.944V119.935Z" fill="#D4FF2A"/>
</g>
</g>
<defs>
<clipPath id="clip0_11_45">
<rect width="16" height="158" fill="white" transform="translate(0 0.15625)"/>
</clipPath>
</defs>
</svg>
