<svg width="140" height="57" viewBox="0 0 140 57" fill="none" xmlns="http://www.w3.org/2000/svg">
<g clip-path="url(#clip0_1_282)">
<mask id="mask0_1_282" style="mask-type:luminance" maskUnits="userSpaceOnUse" x="0" y="0" width="140" height="57">
<path d="M140 0.6875H0V56.6875H140V0.6875Z" fill="white"/>
</mask>
<g mask="url(#mask0_1_282)">
<path d="M12.8643 28.6001V53.6484H37.968H63.0718V28.6001V3.55176H37.968H12.8643V28.6001ZM61.0768 28.6001V51.6534H37.968H14.8593V28.6777C14.8593 16.0316 14.8925 5.6576 14.9368 5.62435C14.9701 5.58001 25.3773 5.54676 38.0456 5.54676H61.0768V28.6001Z" fill="white"/>
<path d="M22.5068 23.8671C22.5068 29.8632 22.529 34.7953 22.5512 34.8175C22.5733 34.8396 25.5658 34.8507 29.2012 34.8285L35.8068 34.8064V32.5343V30.2622H31.5398H27.2727L27.2948 23.9115L27.3281 17.5718L31.573 17.5385L35.8068 17.5164V15.2443V12.9722H29.1568H22.5068V23.8671Z" fill="white"/>
<path d="M40.4619 15.2443V17.5164H46.9457H53.4294V15.2443V12.9722H46.9457H40.4619V15.2443Z" fill="white"/>
<path d="M40.3506 32.9781C40.3506 40.1823 40.3838 43.8952 40.4614 43.8952C40.5279 43.8952 41.603 43.9063 42.8776 43.9063H45.1718L45.2051 39.4729L45.2273 35.0285L48.4747 35.0063L51.711 34.9731L51.7443 33.1665L51.7664 31.371H48.4968H45.2273V28.6002V25.8293L49.3613 25.8072L53.4843 25.7739L53.5176 23.9119L53.5398 22.061H46.9452H40.3506V32.9781Z" fill="white"/>
<path d="M22.5068 41.6232V43.8953H29.2123H35.9177V41.6232V39.3511H29.2123H22.5068V41.6232Z" fill="white"/>
<path d="M92.7422 12.4628C92.1659 12.6734 91.9332 12.9061 91.7115 13.4825C91.4566 14.1475 91.5785 14.6795 92.0994 15.2004C93.0969 16.209 94.9257 15.6659 95.1584 14.3026C95.2582 13.7263 94.8702 12.895 94.3826 12.618C93.8949 12.3409 93.2299 12.2855 92.7422 12.4628Z" fill="white"/>
<path d="M86.3467 19.2905V26.1622H88.0092H89.6717V19.2905V12.4189H88.0092H86.3467V19.2905Z" fill="white"/>
<path d="M76.9144 13.1394C74.4317 13.749 72.6584 15.611 72.1596 18.1602C72.071 18.5924 72.0377 19.335 72.0821 20.1552C72.204 22.9038 73.2458 24.6993 75.2962 25.6747C76.3491 26.1734 77.3799 26.384 78.8207 26.384C81.9684 26.384 84.0742 24.9875 84.7392 22.4272C84.8279 22.0837 84.9055 21.6736 84.9055 21.5406V21.2857L83.0656 21.3078L81.2147 21.3411L81.0596 21.862C80.8933 22.4383 80.3835 23.0147 79.8404 23.2363C79.3195 23.458 78.1779 23.4247 77.6348 23.1809C76.5597 22.6932 76.0056 21.4741 76.0056 19.6232C76.0056 17.8609 76.5154 16.6861 77.5018 16.1652C78.1668 15.8105 79.3638 15.8105 79.918 16.1541C80.3391 16.4201 80.7381 17.0186 80.8601 17.5949L80.9376 17.9607H82.8661H84.8057L84.7392 17.5395C84.3402 15.1787 82.9548 13.6825 80.6827 13.1394C79.8071 12.9399 77.7678 12.9399 76.9144 13.1394Z" fill="white"/>
<path d="M119.818 15.6328V16.6303H119.264H118.71V17.7386V18.8469H119.253H119.796L119.84 21.4737C119.896 24.444 119.973 24.7987 120.683 25.5302C121.248 26.1065 122.046 26.3836 123.154 26.3836C123.642 26.3836 124.263 26.3282 124.54 26.2617L125.027 26.1398V24.9317V23.7236L124.374 23.7901C123.764 23.8566 123.697 23.8455 123.431 23.5795L123.143 23.2913V21.0636V18.8469H124.085H125.027V17.7386V16.6303H124.085H123.143V15.6328V14.6353H121.481H119.818V15.6328Z" fill="white"/>
<path d="M100.212 16.5853C98.8825 16.94 97.6411 17.8932 97.087 18.9793C96.5771 19.9768 96.4109 21.5174 96.6658 22.7477C97.0537 24.5432 98.4059 25.851 100.29 26.2611C101.11 26.4273 102.673 26.4162 103.504 26.2167C105.111 25.8399 106.042 25.0197 106.452 23.6343L106.619 23.058H105.078H103.537L103.393 23.3572C103.161 23.8227 102.706 24.0887 102.041 24.1442C100.944 24.2328 100.068 23.59 99.9021 22.5592L99.8356 22.1713H103.238H106.63V21.6393C106.619 18.3254 104.801 16.3969 101.698 16.4191C101.21 16.4191 100.545 16.4967 100.212 16.5853ZM102.496 18.7244C102.972 18.9461 103.216 19.2897 103.36 19.9214L103.438 20.2872H101.642H99.8578L99.9354 20.0322C100.323 18.7577 101.376 18.2257 102.496 18.7244Z" fill="white"/>
<path d="M113.19 16.564C112.547 16.7746 111.871 17.2512 111.55 17.7278L111.284 18.1268V17.3731V16.6305H109.621H107.959V21.3964V26.1622H109.621H111.284V23.2251C111.284 19.9445 111.328 19.6785 111.971 19.2905C112.47 18.9913 113.368 18.9913 113.756 19.2905C113.922 19.4235 114.099 19.7117 114.166 19.9334C114.221 20.1661 114.276 21.5959 114.276 23.2473V26.1622H115.884H117.502L117.468 22.416C117.435 18.7918 117.424 18.6699 117.18 18.1268C116.648 16.9741 115.906 16.4975 114.554 16.4421C113.999 16.42 113.49 16.4643 113.19 16.564Z" fill="white"/>
<path d="M91.7773 21.3963V26.1621H93.3844H94.9915V21.3963V16.6304H93.3844H91.7773V21.3963Z" fill="white"/>
<path d="M83.8528 30.7613C82.6891 31.1713 82.3566 32.7673 83.2654 33.5321C84.5954 34.6515 86.6015 33.6097 86.3022 31.9693C86.2025 31.4373 85.6483 30.8832 85.072 30.7169C84.5178 30.5618 84.3959 30.5728 83.8528 30.7613Z" fill="white"/>
<path d="M72.7139 37.9103V44.4494H74.598H76.4822V42.1773V39.9053H78.4772H80.4722V38.5198V37.1344H78.4772H76.4822V35.6936V34.2528H79.0314H81.5916L81.5584 32.8341L81.5251 31.4265L77.125 31.3933L72.7139 31.3711V37.9103Z" fill="white"/>
<path d="M105.964 33.9199V34.9174H105.355H104.745V36.0257V37.1341H105.355H105.964V39.6611C105.964 42.6979 106.053 43.1412 106.807 43.8617C107.483 44.5156 108.214 44.7151 109.611 44.6375C111.14 44.5599 111.063 44.6375 111.063 43.2188V42.0107L110.564 42.0883C109.965 42.1659 109.478 41.9886 109.3 41.6117C109.223 41.4344 109.178 40.5588 109.178 39.2399V37.1341H110.121H111.063V36.0257V34.9174H110.121H109.178V33.9199V32.9224H107.571H105.964V33.9199Z" fill="white"/>
<path d="M98.0953 34.8622C96.8428 35.2169 96.0116 35.9373 95.7123 36.9348C95.5128 37.6109 95.5018 37.9323 95.668 38.7081C95.7678 39.1847 95.8897 39.3953 96.3108 39.7943C96.9204 40.3817 97.4635 40.5923 99.1814 40.8915C100.578 41.1354 100.977 41.3238 100.977 41.7339C100.977 42.7314 98.993 42.82 98.594 41.8447L98.4278 41.4568H96.9204H95.4131L95.4907 41.9223C95.7788 43.6624 97.0423 44.549 99.4031 44.6488C101.409 44.7264 102.617 44.3828 103.437 43.4739C103.958 42.8976 104.136 42.3545 104.125 41.3459C104.114 39.5172 103.282 38.8522 100.378 38.3645C99.0152 38.1429 98.6494 37.9655 98.6494 37.5222C98.6494 37.1121 99.0484 36.8572 99.7023 36.8572C100.334 36.8572 100.689 37.0678 100.877 37.5444C100.966 37.7882 101.021 37.7993 102.429 37.7993H103.892L103.814 37.3338C103.715 36.702 103.238 35.8597 102.772 35.5161C102.063 34.973 101.365 34.7735 99.9794 34.7403C99.0706 34.707 98.5275 34.7514 98.0953 34.8622Z" fill="white"/>
<path d="M93.351 34.9729C92.7192 35.1724 92.1651 35.6046 91.7771 36.2253L91.4446 36.7462V35.8263V34.9175H89.8376H88.2305V39.6833V44.4491H89.8265H91.4336L91.4668 41.8667C91.5001 39.65 91.5222 39.24 91.6996 38.9296C92.0099 38.3644 92.6084 38.0319 93.6391 37.8878L94.548 37.7548V36.2807V34.8066L94.1933 34.8177C93.9938 34.8177 93.617 34.8842 93.351 34.9729Z" fill="white"/>
<path d="M82.9111 39.6833V44.4491H84.5182H86.1253V39.6833V34.9175H84.5182H82.9111V39.6833Z" fill="white"/>
</g>
</g>
<defs>
<clipPath id="clip0_1_282">
<rect width="140" height="56" fill="white" transform="translate(0 0.6875)"/>
</clipPath>
</defs>
</svg>
