<svg width="48" height="49" viewBox="0 0 48 49" fill="none" xmlns="http://www.w3.org/2000/svg">
<path d="M16.5597 24.4999L5.03969 13.2199C4.55969 12.7399 4.55969 12.0199 5.03969 11.5399L10.7997 5.77992C11.2797 5.29992 11.9997 5.29992 12.4797 5.77992L23.7597 17.0599" stroke="#D4FF2A" stroke-width="2" stroke-miterlimit="10"/>
<path d="M31.2 24.5L42.72 36.02C43.2 36.5 43.2 37.22 42.72 37.7L36.96 43.46C36.48 43.94 35.76 43.94 35.28 43.46L24 31.94" stroke="#D4FF2A" stroke-width="2" stroke-miterlimit="10"/>
<path d="M33.7373 41.9306L31.3615 39.5546L36.283 34.6333L38.6589 37.0092L33.7373 41.9306Z" fill="#D4FF2A"/>
<path d="M28.8008 36.8888L26.4249 34.5129L28.9706 31.9673L31.3464 34.3432L28.8008 36.8888Z" fill="#D4FF2A"/>
<path d="M14.1035 22.0204L11.7277 19.6445L16.6492 14.7231L19.0251 17.099L14.1035 22.0204Z" fill="#D4FF2A"/>
<path d="M9.16404 17.3233L6.78821 14.9474L9.33383 12.4019L11.7097 14.7778L9.16404 17.3233Z" fill="#D4FF2A"/>
<path d="M33.5996 7.45981L35.0396 6.0198C35.9996 5.0598 37.4396 5.0598 38.3996 6.0198L42.4796 10.0998C43.4396 11.0598 43.4396 12.4998 42.4796 13.4598L41.0396 14.8998" stroke="#D4FF2A" stroke-width="2" stroke-miterlimit="10" stroke-linecap="round" stroke-linejoin="round"/>
<path d="M31.7207 9.58789L39.0179 16.8854L16.1073 39.7952L8.81006 32.4977L31.7207 9.58789Z" stroke="#D4FF2A" stroke-width="2" stroke-miterlimit="10" stroke-linecap="round" stroke-linejoin="round"/>
<path d="M10.6064 35.4012L34.0254 11.9814L36.4013 14.3572L12.9824 37.777L10.6064 35.4012Z" fill="#D4FF2A"/>
<path d="M5.04004 43.4599L8.64004 32.4199L16.08 39.8599L5.04004 43.4599Z" stroke="#D4FF2A" stroke-width="2" stroke-miterlimit="10" stroke-linecap="round" stroke-linejoin="round"/>
<path d="M6.24004 39.8604L5.04004 43.4604L8.64004 42.2603L6.24004 39.8604Z" fill="#D4FF2A"/>
<path d="M41.5204 14.4205L38.6404 17.0605L31.4404 9.86047L34.0804 6.98047" stroke="#D4FF2A" stroke-width="2" stroke-miterlimit="10" stroke-linecap="round" stroke-linejoin="round"/>
</svg>
