<svg width="542" height="506" viewBox="0 0 542 506" fill="none" xmlns="http://www.w3.org/2000/svg">
<g clip-path="url(#clip0_1_22)">
<mask id="mask0_1_22" style="mask-type:luminance" maskUnits="userSpaceOnUse" x="0" y="-1" width="89" height="89">
<path d="M0.286861 43.5453L40.8326 87.961L88.5343 44.4155L47.9886 -0.000160681L0.286861 43.5453Z" fill="white"/>
</mask>
<g mask="url(#mask0_1_22)">
<path d="M55.3518 70.0133L42.5484 72.1537L36.3525 73.1852C34.1703 73.5478 31.916 73.781 29.7736 74.3253C28.997 74.5179 29.2579 75.2437 29.6505 75.7115C30.1625 76.3228 31.0867 76.8447 31.9 76.7678C34.1229 76.5631 36.3413 76.0643 38.5417 75.6965L44.7376 74.6649L57.5466 72.5308C58.3747 72.3946 58.0355 71.5453 57.6657 71.1025C57.1708 70.51 56.1616 69.8822 55.3455 70.019L55.3518 70.0133Z" fill="#D4FF2A"/>
<path d="M55.0382 51.9964C42.3119 44.8058 29.6452 37.492 16.8343 30.4476C16.3897 30.1994 15.2945 29.6156 14.8881 30.2389C14.5068 30.8395 15.4766 31.6755 15.8916 31.9164C28.5332 39.2531 41.3243 46.3386 54.0568 53.5234C54.5248 53.7847 55.6668 54.3946 56.0867 53.7359C56.4868 53.1182 55.4776 52.2264 55.0387 51.9844L55.0382 51.9964Z" fill="#D4FF2A"/>
<path d="M68.6827 43.3732L66.4873 30.7234L65.409 24.5013C65.0386 22.3608 64.7666 20.1647 64.2447 18.0593C64.0613 17.3431 63.1873 16.7754 62.5501 16.5424C62.2197 16.4193 61.0379 16.1556 61.1073 16.8726C61.3141 19.0476 61.7975 21.2113 62.1736 23.3581L63.252 29.5802L65.4797 42.4415C65.6793 43.5904 68.9776 45.0664 68.6884 43.3795L68.6827 43.3732Z" fill="#D4FF2A"/>
</g>
</g>
<g clip-path="url(#clip1_1_22)">
<path d="M514.649 452.858C507.019 460.886 499.489 468.981 491.909 477.042C491.329 477.654 492.409 477.989 492.959 477.997C497.199 478.056 501.309 476.388 505.199 475.148C509.089 473.908 513.129 472.534 517.059 471.134C524.919 468.336 532.549 465.193 540.199 462.026L537.809 461.062C531.119 466.551 524.669 472.266 518.109 477.872C511.549 483.478 504.989 489.075 498.429 494.689C494.729 497.857 491.029 501.024 487.359 504.225C486.779 504.728 486.899 505.223 487.739 505.407C488.579 505.591 489.929 505.298 490.559 504.779C503.809 493.676 516.809 482.371 529.919 471.151C533.619 467.984 537.399 464.858 541.019 461.623C541.509 461.188 541.589 460.727 540.819 460.492C539.969 460.232 538.919 460.517 538.169 460.853C531.169 464.003 523.889 466.769 516.589 469.4C512.969 470.707 509.319 471.964 505.639 473.162C503.799 473.766 501.959 474.352 500.109 474.93C498.259 475.508 496.439 476.187 494.469 476.162L495.519 477.117C503.059 469.048 510.639 461.02 518.129 452.925C518.679 452.33 517.649 452.029 517.109 452.004C516.239 451.962 515.199 452.28 514.649 452.858Z" fill="#D4FF2A"/>
</g>
<defs>
<clipPath id="clip0_1_22">
<rect width="88.9881" height="88.1406" fill="white" transform="translate(0.287186)"/>
</clipPath>
<clipPath id="clip1_1_22">
<rect width="55" height="54" fill="white" transform="translate(487 452)"/>
</clipPath>
</defs>
</svg>
