<svg width="669" height="403" viewBox="0 0 669 403" fill="none" xmlns="http://www.w3.org/2000/svg">
<g clip-path="url(#clip0_1_348)">
<mask id="mask0_1_348" style="mask-type:luminance" maskUnits="userSpaceOnUse" x="0" y="0" width="59" height="74">
<path d="M8.21241 0.687109L0.109375 67.1953L50.735 73.3633L58.8381 6.85509L8.21241 0.687109Z" fill="white"/>
</mask>
<g mask="url(#mask0_1_348)">
<path d="M20.6261 60.5176C17.9515 58.1935 15.3053 55.8265 12.7163 53.3736C11.4621 52.1984 10.2336 51.0032 9.00508 49.808C7.67581 48.4843 6.38279 46.8631 4.72234 45.9637C3.32334 45.2124 2.49984 47.5749 2.39384 48.4449C2.16233 50.3451 2.5247 52.341 3.5569 54.0002C4.5891 55.6594 6.23966 57.0222 7.63221 58.4001C8.901 59.6466 10.1726 60.8703 11.4671 62.0968C14.059 64.5269 16.6794 66.914 19.3798 69.2179C21.022 70.6494 22.262 68.5003 22.4433 67.0122C22.6971 64.9288 22.3316 62.0032 20.6261 60.5176Z" fill="#D4FF2A"/>
<path d="M36.6818 39.0298C30.0799 30.3258 23.8155 21.3376 17.8285 12.1742C17.474 11.6431 16.7836 11.0014 16.0729 11.1006C15.3621 11.1999 14.8889 12.0252 14.6759 12.6265C13.9659 14.6311 14.4734 17.1558 15.5633 18.915C21.416 28.2247 27.6978 37.2614 34.3372 46.0397C34.7376 46.5764 35.3967 47.284 36.1791 47.1702C36.9615 47.0564 37.4375 46.2083 37.6303 45.5812C38.2458 43.5884 37.9866 40.7454 36.7047 39.0326L36.6818 39.0298Z" fill="#D4FF2A"/>
<path d="M55.0885 34.953C54.4897 30.8837 54.0084 26.8055 53.6676 22.7213C53.6316 22.2522 53.5956 21.7831 53.5596 21.3141C53.4813 20.2357 53.5866 21.6659 53.5 20.6562C53.4245 19.555 53.3491 18.4538 53.2966 17.3554C53.1749 15.296 53.0761 13.2393 53.0003 11.1855C52.9201 9.54935 52.5199 6.5266 50.6395 5.90253C48.7592 5.27846 48.3222 8.29213 48.3232 9.43074C48.3732 18.1961 49.1888 26.9851 50.4629 35.644C50.6481 36.991 51.5136 40.2098 53.4338 39.9326C55.3541 39.6554 55.2794 36.2541 55.0858 34.9759L55.0885 34.953Z" fill="#D4FF2A"/>
</g>
</g>
<g clip-path="url(#clip1_1_348)">
<mask id="mask1_1_348" style="mask-type:luminance" maskUnits="userSpaceOnUse" x="537" y="307" width="132" height="96">
<path d="M669 307.859H537V402.859H669V307.859Z" fill="white"/>
</mask>
<g mask="url(#mask1_1_348)">
<path d="M540.346 388.573C545.515 374.513 551.379 360.744 557.878 347.252L554.532 347.678C555.636 357.252 556.799 366.843 558.589 376.317C559.492 381.071 560.554 385.8 561.868 390.462C562.888 394.096 563.783 398.532 566.652 401.239C569.521 403.946 573.979 402.927 576.447 400.019C579.09 396.903 581.114 393.043 583.005 389.442C586.953 381.923 590.048 374.003 593.276 366.166C596.915 357.336 600.788 348.547 606.283 340.685L602.87 341.119C603.506 351.103 604.15 361.12 605.99 370.97C606.919 375.925 608.132 380.854 609.838 385.599C610.984 388.782 613.042 392.55 616.705 393.193C621.532 394.046 625.078 389.902 627.688 386.485C630.481 382.817 632.673 378.732 634.764 374.638C639.582 365.197 644.325 355.715 649.109 346.249C654.563 335.463 660.075 324.703 665.403 313.85C666.114 312.396 662.76 312.806 662.25 313.783C652.848 331.871 643.815 350.142 634.622 368.33C632.531 372.466 630.523 376.651 628.19 380.662C627.094 382.541 625.923 384.379 624.61 386.125C623.296 387.872 621.992 389.651 620.269 390.829C617.316 392.851 614.522 387.554 613.677 385.457C611.963 381.196 610.858 376.61 609.938 372.123C607.772 361.613 607.086 350.869 606.4 340.175C606.367 339.607 605.212 339.632 604.878 339.674C604.209 339.758 603.389 340.042 602.987 340.61C593.753 353.843 589.144 369.475 582.386 383.97C580.704 387.588 578.864 391.138 576.79 394.555C575.753 396.26 574.69 397.997 573.461 399.576C573.135 399.994 572.574 400.788 572.022 400.905C571.47 401.022 570.826 400.587 570.424 400.295C567.422 398.106 566.56 393.62 565.598 390.286C564.352 385.95 563.323 381.556 562.436 377.136C560.437 367.085 559.241 356.909 557.995 346.75C557.853 345.572 554.975 346.5 554.649 347.176C548.108 360.811 542.236 374.78 537.033 388.983C536.774 389.693 538.096 389.735 538.464 389.693C539.15 389.609 540.086 389.284 540.346 388.565V388.573Z" fill="#D4FF2A"/>
<path d="M658.268 319.071C659.632 317.225 661.062 315.42 662.568 313.682C663.312 312.822 664.065 311.978 664.843 311.151C665.177 310.792 665.512 310.416 665.88 310.081C666.005 309.965 666.198 309.873 666.315 309.747C666.348 309.697 666.382 309.68 666.432 309.689C665.554 309.58 665.286 309.63 665.646 309.839L665.52 309.38C664.876 312.421 664.241 315.462 663.605 318.503C663.178 320.558 661.806 323.983 664.065 325.429C664.784 325.888 667.854 324.902 666.934 323.975C666.223 323.248 666.281 322.271 666.44 321.327C666.666 319.982 666.984 318.653 667.26 317.317C667.837 314.526 668.423 311.736 668.992 308.945C669.033 308.77 668.992 308.619 668.866 308.486C667.57 307.425 665.721 307.868 664.366 308.611C663.011 309.355 662.099 310.558 661.121 311.644C658.996 313.991 656.989 316.439 655.115 318.996C654.638 319.647 655.525 319.973 656.035 319.99C656.805 320.015 657.792 319.714 658.277 319.063L658.268 319.071Z" fill="#D4FF2A"/>
</g>
</g>
<defs>
<clipPath id="clip0_1_348">
<rect width="59" height="73" fill="white" transform="translate(0.109375 0.6875)"/>
</clipPath>
<clipPath id="clip1_1_348">
<rect width="132" height="95" fill="white" transform="translate(537 307.859)"/>
</clipPath>
</defs>
</svg>
