<svg width="25" height="25" viewBox="0 0 25 25" fill="none" xmlns="http://www.w3.org/2000/svg">
<g clip-path="url(#clip0_1_392)">
<mask id="mask0_1_392" style="mask-type:luminance" maskUnits="userSpaceOnUse" x="0" y="0" width="25" height="25">
<path d="M24.9844 0.859375H0.984375V24.8594H24.9844V0.859375Z" fill="white"/>
</mask>
<g mask="url(#mask0_1_392)">
<path d="M12.9844 0.859375C6.35691 0.859375 0.984375 6.23198 0.984375 12.8594C0.984375 19.4868 6.35691 24.8594 12.9844 24.8594C19.6118 24.8594 24.9844 19.4868 24.9844 12.8594C24.9844 6.23198 19.6118 0.859375 12.9844 0.859375ZM11.7412 23.0709C9.46439 22.7982 7.35781 21.779 5.71123 20.1325C3.7685 18.1898 2.69864 15.6068 2.69864 12.8594C2.69864 10.3861 3.5661 8.04646 5.15639 6.18675C5.19735 6.67811 5.29849 7.2049 5.27258 7.58146C5.17797 8.95425 5.04251 9.81339 5.84605 10.9716C6.15908 11.4227 6.23599 12.0694 6.38835 12.5915C6.53737 13.1023 7.1327 13.3702 7.54329 13.6849C8.37171 14.3201 9.16423 15.0583 10.0426 15.6173C10.6224 15.9862 10.9846 16.1697 10.8147 16.8772C10.6782 17.4462 10.64 17.7966 10.3457 18.3035C10.2559 18.4582 10.6848 19.4526 10.8275 19.5954C11.2601 20.0279 11.6893 20.4247 12.1608 20.8141C12.8919 21.4181 12.0898 22.2029 11.7412 23.0709ZM20.2575 20.1325C18.7787 21.6113 16.9287 22.5836 14.9177 22.9641C15.2027 22.2593 15.7102 21.6331 16.1809 21.2701C16.5903 20.9542 17.1032 20.3465 17.317 19.8652C17.5307 19.3845 17.8138 18.9678 18.1003 18.5258C18.5079 17.897 17.0954 16.9487 16.6376 16.7499C15.6076 16.3028 14.8322 15.6994 13.9168 15.0552C13.2646 14.5963 11.9405 15.2949 11.2041 14.9735C10.1956 14.5331 9.36471 13.7679 8.48806 13.1078C7.58345 12.4265 7.62718 11.6322 7.62718 10.6271C8.33575 10.6533 9.34375 10.431 9.81419 11.0009C9.96263 11.1807 10.473 11.9841 10.8147 11.6986C11.0938 11.4654 10.6079 10.5304 10.514 10.3106C10.2252 9.63472 11.1719 9.37113 11.6565 8.91282C12.2888 8.3149 13.6452 7.37716 13.538 6.94857C13.4308 6.51998 12.1808 5.30567 11.4467 5.49512C11.3366 5.5235 10.368 6.53919 10.1808 6.69852C10.1858 6.36702 10.1907 6.03558 10.1958 5.70408C10.199 5.49477 9.80536 5.27994 9.82364 5.14494C9.86979 4.80375 10.8195 4.18453 11.0558 3.9128C10.8903 3.80936 10.3255 3.32422 10.1545 3.39542C9.74062 3.56791 9.2732 3.68675 8.85931 3.85921C8.85931 3.71567 8.8419 3.58084 8.82113 3.44769C9.6546 3.07897 10.5338 2.82378 11.4352 2.68892L12.2477 3.01546L12.8214 3.69627L13.394 4.28664L13.8944 4.4479L14.6894 3.69818L14.4844 3.16298V2.68187C16.0565 2.91022 17.5412 3.49672 18.8414 4.4011C18.6088 4.42193 18.3532 4.45615 18.0648 4.49284C17.9456 4.42246 17.7928 4.3905 17.663 4.34151C18.0397 5.15163 18.4327 5.95055 18.832 6.74994C19.2586 7.60384 20.2047 8.51977 20.3709 9.42115C20.5667 10.4836 20.4308 11.4487 20.5379 12.6987C20.6411 13.9025 21.8951 15.2702 21.8951 15.2702C21.8951 15.2702 22.4742 15.4674 22.9557 15.3987C22.5068 17.1747 21.5865 18.8034 20.2575 20.1325Z" fill="white"/>
</g>
</g>
<defs>
<clipPath id="clip0_1_392">
<rect width="24" height="24" fill="white" transform="translate(0.984375 0.859375)"/>
</clipPath>
</defs>
</svg>
