<svg width="24" height="25" viewBox="0 0 24 25" fill="none" xmlns="http://www.w3.org/2000/svg">
<g clip-path="url(#clip0_1_403)">
<path d="M16.5 6.43848H13.5C12.9477 6.43848 12.5 6.8862 12.5 7.43848V10.4385H16.5C16.6137 10.436 16.7216 10.4889 16.7892 10.5804C16.8568 10.6719 16.8758 10.7905 16.84 10.8985L16.1 13.0985C16.0318 13.3004 15.8431 13.4369 15.63 13.4385H12.5V20.9385C12.5 21.2146 12.2761 21.4385 12 21.4385H9.5C9.22386 21.4385 9 21.2146 9 20.9385V13.4385H7.5C7.22386 13.4385 7 13.2146 7 12.9385V10.9385C7 10.6624 7.22386 10.4385 7.5 10.4385H9V7.43848C9 5.22934 10.7909 3.43848 13 3.43848H16.5C16.7761 3.43848 17 3.66234 17 3.93848V5.93848C17 6.21462 16.7761 6.43848 16.5 6.43848Z" fill="#D4FF2A"/>
</g>
<defs>
<clipPath id="clip0_1_403">
<rect width="24" height="24" fill="white" transform="translate(0 0.438477)"/>
</clipPath>
</defs>
</svg>
