<svg width="140" height="57" viewBox="0 0 140 57" fill="none" xmlns="http://www.w3.org/2000/svg">
<mask id="mask0_1_249" style="mask-type:luminance" maskUnits="userSpaceOnUse" x="3" y="10" width="133" height="38">
<path d="M136 10.6875H3V47.3423H136V10.6875Z" fill="white"/>
</mask>
<g mask="url(#mask0_1_249)">
<path d="M35.1494 10.7178V38.9626L38.7769 38.9765V25.5325H47.5412V21.9742H38.7769V14.2761H50.1856V10.7178H35.1494ZM56.7346 16.4498C58.0499 16.4498 59.1022 15.3837 59.1022 14.0822C59.1022 12.7808 58.036 11.7147 56.7346 11.7147C55.4192 11.7147 54.367 12.7808 54.367 14.0822C54.367 15.3837 55.4331 16.4498 56.7346 16.4498ZM54.8931 20.0081V38.9626H58.5206V20.0081H54.8931Z" fill="white"/>
<path fill-rule="evenodd" clip-rule="evenodd" d="M71.9924 19.4541C67.1604 19.4541 63.7959 23.5385 63.7959 28.3845C63.7959 33.2304 67.1604 37.3148 71.9924 37.3148C74.2077 37.3148 76.0215 36.4564 77.3507 35.0718V37.5779C77.3507 40.7208 74.8862 43.3376 71.6601 43.3376C70.4971 43.3376 69.3479 42.8946 68.4341 42.2577L66.6065 45.4144C68.0603 46.3559 69.791 46.8959 71.6463 46.8959C76.7968 46.8959 80.9643 42.7284 80.9643 37.5779V20.0079H77.3507V21.6971C76.0215 20.3125 74.2077 19.4541 71.9924 19.4541ZM67.4373 28.3845C67.4373 25.38 69.7356 23.0124 72.394 23.0124C75.0523 23.0124 77.3507 25.38 77.3507 28.3845C77.3507 31.3889 75.0523 33.7565 72.394 33.7565C69.7356 33.7565 67.4373 31.3889 67.4373 28.3845Z" fill="white"/>
<path d="M94.0757 23.0124C91.9297 23.0124 90.1851 24.84 90.1851 26.9861V38.9624H86.5576V20.0079H90.1851V21.7386C91.2512 20.3679 92.8158 19.4541 94.8649 19.4541C97.4125 19.4541 99.3647 20.714 100.5 22.6524C101.76 20.7833 103.809 19.4541 106.287 19.4541C110.427 19.4541 113.003 22.7909 113.016 26.9168V38.9624H109.389V26.9722C109.389 24.8262 107.644 22.9986 105.498 22.9986C103.352 22.9986 101.608 24.8262 101.608 26.9722V38.9624H97.9802V26.9722C97.9663 24.8262 96.2218 23.0124 94.0757 23.0124Z" fill="white"/>
<path fill-rule="evenodd" clip-rule="evenodd" d="M132.372 22.154C130.752 20.4787 128.537 19.4541 125.975 19.4541C120.576 19.4541 116.727 24.037 116.727 29.4921C116.727 34.9472 120.562 39.5301 125.975 39.5301C128.537 39.5301 130.752 38.4917 132.372 36.8302V38.9624H136V20.0079H132.372V22.154ZM120.368 29.4921C120.368 25.8784 123.137 23.0124 126.377 23.0124C129.603 23.0124 132.386 25.8646 132.386 29.4921C132.386 33.1058 129.617 35.9718 126.377 35.9718C123.137 35.958 120.368 33.1058 120.368 29.4921Z" fill="white"/>
<path d="M15.1982 29.0219C15.1982 25.6574 17.9258 22.916 21.3041 22.916C24.6686 22.916 27.41 25.6436 27.41 29.0219C27.41 32.3863 24.6824 35.1278 21.3041 35.1278C17.9397 35.1278 15.1982 32.3863 15.1982 29.0219Z" fill="#1ABCFE"/>
<path d="M3 41.2201C3 37.8557 5.72757 35.1143 9.10587 35.1143H15.2117V41.2201C15.2117 44.5846 12.4842 47.326 9.10587 47.326C5.72757 47.326 3 44.5984 3 41.2201Z" fill="#0ACF83"/>
<path d="M15.1982 10.7179V22.9158H21.3041C24.6686 22.9158 27.41 20.1883 27.41 16.81C27.41 13.4455 24.6824 10.7041 21.3041 10.7041H15.1982V10.7179Z" fill="#FF7262"/>
<path d="M3 16.8236C3 20.1881 5.72757 22.9295 9.10587 22.9295H15.2117V10.7178H9.10587C5.72757 10.7178 3 13.4453 3 16.8236Z" fill="#F24E1E"/>
<path d="M3 29.0219C3 32.3863 5.72757 35.1278 9.10587 35.1278H15.2117V22.916H9.10587C5.72757 22.916 3 25.6574 3 29.0219Z" fill="#A259FF"/>
</g>
</svg>
