<svg width="140" height="57" viewBox="0 0 140 57" fill="none" xmlns="http://www.w3.org/2000/svg">
<mask id="mask0_1_273" style="mask-type:luminance" maskUnits="userSpaceOnUse" x="3" y="10" width="133" height="38">
<path d="M136 10.6875H3V47.2149H136V10.6875Z" fill="white"/>
</mask>
<g mask="url(#mask0_1_273)">
<path d="M13.1407 10.912C9.488 11.2034 7.31428 12.6151 6.32827 15.3379C5.88008 16.5816 5.80165 17.4892 5.80165 21.0859V24.4473L5.4655 24.5818C5.05093 24.7499 4.2778 25.5902 4.0313 26.128C3.87443 26.4754 3.84082 26.9348 3.84082 28.8956C3.84082 31.1365 3.85203 31.2822 4.10973 31.8424C4.38985 32.4587 5.09575 33.1646 5.54394 33.2767L5.80165 33.3439V36.7053C5.80165 38.6101 5.85767 40.4029 5.9249 40.8622C6.30586 43.2825 7.49356 45.0304 9.42077 45.9828C10.5861 46.5654 11.9867 46.8568 14.0371 46.9464C15.8523 47.036 16.6254 46.8792 17.2865 46.3077C17.97 45.7027 18.1717 45.2433 18.2389 44.2013L18.2949 43.2601L18.7991 43.1144C19.1465 43.0136 19.998 42.9575 21.4883 42.9575C23.3594 42.9575 23.7404 42.9239 24.1214 42.7446C24.6816 42.4981 25.5892 41.5009 25.69 41.0415C25.7685 40.7054 25.7685 40.7054 26.071 41.3553C26.4295 42.106 27.1915 42.8567 27.8301 43.0808C28.1551 43.204 29.0066 43.2376 31.2924 43.2376C33.9815 43.2376 34.3625 43.2152 34.6874 43.036C35.0348 42.8455 35.0572 42.8455 35.4157 43.036C35.7182 43.204 36.1552 43.2376 38.4858 43.2713C41.6231 43.3161 42.1946 43.2376 42.9565 42.655C43.4719 42.274 43.4719 42.274 43.7184 42.4869C44.3907 43.1144 44.4915 43.1256 47.9314 43.1256C51.0015 43.1256 51.1471 43.1144 51.5841 42.8791C52.0659 42.6214 52.7942 41.8819 52.9959 41.4449L53.1192 41.1648L53.6346 41.5457C54.4637 42.1508 55.7299 42.7334 56.884 43.0472C57.8252 43.2937 58.1949 43.3273 59.8644 43.3385C61.0297 43.3385 62.0269 43.2825 62.4415 43.204C64.8505 42.6774 67.0803 41.4561 68.2007 40.0443L68.6489 39.4841L68.8394 40.3468C69.0859 41.4673 69.3212 41.9379 69.915 42.4421C70.6994 43.1144 71.1924 43.204 74.1728 43.1592C76.7835 43.1256 76.7835 43.1256 77.3774 42.8119C77.7023 42.6438 78.1057 42.3189 78.2626 42.0836L78.5651 41.669L79.1477 42.2516C80.0217 43.1256 80.3803 43.204 83.5848 43.1592C86.5653 43.1256 86.7221 43.0808 87.5625 42.1284C88.0219 41.6018 88.2123 41.0975 88.5037 39.6297C88.5821 39.2376 88.6717 38.9238 88.7166 38.9238C88.7502 38.9238 88.9183 39.1367 89.0975 39.3832C90.4309 41.2656 92.4365 42.6438 94.7559 43.2713C95.7195 43.529 96.0444 43.5626 97.7924 43.5626C99.2714 43.5626 99.9773 43.5178 100.683 43.3721C102.778 42.9127 104.93 41.9715 105.871 41.0863L106.409 40.5821L107.003 41.0751C108.975 42.7446 110.891 43.4729 113.591 43.5962C116.571 43.7307 119.731 42.8791 121.905 41.3665C122.252 41.12 122.566 40.851 122.6 40.7614C122.644 40.6494 122.824 40.7614 123.216 41.1424C124.908 42.767 127.238 43.3833 131.227 43.2713C133.166 43.2152 133.67 43.0584 134.387 42.2628C135.138 41.4337 135.16 41.2992 135.16 38.3076V35.6184L134.846 34.9798C134.331 33.9153 133.345 33.3215 132.124 33.3215H131.519V32.1562V31.0021L132.045 30.8004C132.74 30.5315 133.401 29.9152 133.715 29.2317C133.972 28.7051 133.984 28.5483 133.984 26.3185C133.984 24.0888 133.972 23.9319 133.715 23.4053C133.401 22.7106 132.583 21.9487 131.989 21.7694L131.53 21.6349L131.496 19.1587C131.463 16.8729 131.44 16.6488 131.216 16.2343C130.902 15.6404 130.342 15.125 129.726 14.8449C129.255 14.632 128.998 14.6096 126.073 14.6096H122.936L122.353 14.9009C122.039 15.0578 121.625 15.3827 121.434 15.618C120.796 16.4135 120.762 16.6264 120.762 19.2259V21.6125L120.157 21.8702C119.821 22.0159 119.44 22.2512 119.305 22.3969L119.048 22.6658L118.375 22.3184C116.84 21.5453 114.196 21.1756 112.19 21.4333C110.913 21.6013 109.423 22.1055 108.392 22.6994C107.63 23.1476 106.42 24.2344 105.849 24.9964L105.58 25.3661L105.087 24.7387C104.011 23.3717 102.05 22.128 100.201 21.6686C99.0137 21.366 97.2097 21.2652 95.9436 21.4333C94.7111 21.6013 93.1424 22.1055 92.2573 22.6322L91.6074 23.0131L91.1928 22.5873C90.3861 21.7582 90.2404 21.7246 87.0583 21.691C83.977 21.6574 83.5288 21.7134 82.8341 22.2736L82.5091 22.5425L82.1618 22.2736C81.4335 21.7246 81.1422 21.6686 78.834 21.6686C76.6827 21.6686 76.6715 21.6686 75.988 21.9935C75.607 22.1728 75.2597 22.3745 75.2261 22.4417C75.1701 22.5313 75.0468 22.4977 74.8227 22.3408C73.9263 21.7022 73.7583 21.6686 70.6209 21.6686C67.9318 21.6686 67.6741 21.691 67.2035 21.9039C66.9234 22.0271 66.5424 22.2736 66.3519 22.4641L66.0158 22.789L65.2315 22.4081C63.6516 21.6237 61.5451 21.254 59.4274 21.366C57.8027 21.4669 56.5254 21.7806 55.2145 22.4193C54.3293 22.8451 53.9819 23.0916 53.1416 23.9319C52.234 24.8171 52.122 24.9067 51.9987 24.7274C50.9567 23.1812 49.6569 22.2288 47.8193 21.6574C46.598 21.2764 44.4243 21.2764 43.259 21.6574C42.5531 21.8815 42.3851 21.9039 41.9481 21.7918C41.6567 21.7246 40.4466 21.6686 39.0348 21.6686H36.6146L36.6034 19.338C36.6034 17.859 36.5474 16.8841 36.469 16.6601C36.2 15.9317 35.651 15.3267 34.9787 14.9905L34.3177 14.6656H31.4044C29.8022 14.6656 28.2671 14.6768 27.987 14.6768C27.7069 14.688 26.1718 14.688 24.5695 14.6768C21.253 14.6656 20.6927 14.7553 19.1913 15.506L18.3509 15.9317L18.3397 14.5648C18.3285 13.0857 18.2501 12.7496 17.7235 11.9989C16.9952 10.9681 15.8523 10.6991 13.1407 10.912ZM15.4377 15.6628V17.4892L14.6086 17.5564C14.1492 17.59 13.6113 17.6909 13.3984 17.7917C12.6813 18.1391 12.6925 18.027 12.6365 22.9571C12.5805 27.8536 12.5693 27.932 11.8858 28.6379L11.5945 28.9404L11.9418 29.3326C12.5917 30.0721 12.6365 30.4531 12.6477 34.991C12.6477 37.8594 12.6925 39.2039 12.7822 39.4841C12.9727 40.0331 13.4657 40.2796 14.5413 40.3468L15.4377 40.4141V42.2628V44.1116L14.0147 44.0444C10.8774 43.9099 9.67848 43.2488 9.0286 41.288C8.80451 40.5933 8.7821 40.2796 8.72608 36.0666C8.67005 32.7276 8.62524 31.5175 8.51319 31.3382C8.33391 31.0245 7.86331 30.778 7.26946 30.6772L6.81007 30.5987V28.9964V27.383H7.17983C7.71765 27.383 8.3003 27.0468 8.51319 26.5986C8.69246 26.2513 8.71487 25.7807 8.71487 22.1728C8.72608 17.041 8.84933 16.2567 9.82414 15.1362C10.5412 14.3183 12.1435 13.8589 14.2948 13.8365L15.4377 13.8253V15.6628ZM26.5864 19.4276V21.3884L25.2418 21.4445C24.1998 21.4893 23.83 21.5453 23.5947 21.7022C23.169 21.9935 22.9449 22.6546 22.9449 23.6294V24.4697H24.4575H25.9701V26.1504V27.8312H24.4575H22.9449V34.0498V40.2684L20.5134 40.246L18.0708 40.2124V34.0722V27.9432H16.9279H15.7738V26.2625V24.5818H16.8943H18.0148V23.6518C18.0148 22.5537 18.1829 21.366 18.4182 20.6265C18.6759 19.8534 19.4154 18.8002 19.998 18.408C21.0961 17.6461 22.2278 17.4332 24.8497 17.4556L26.5864 17.4668V19.4276ZM33.7014 19.5957V21.5565H31.2364H28.7713V19.5957V17.6349H31.2364H33.7014V19.5957ZM128.605 21.1643V24.6938H129.871H131.126L131.093 26.3745L131.059 28.0553H129.827H128.594L128.628 31.6071C128.661 34.8005 128.684 35.2039 128.863 35.54C129.188 36.1339 129.782 36.3467 131.16 36.3467H132.303V38.3636V40.3804H130.398C127.496 40.3804 126.252 40.0443 125.188 38.9799C124.919 38.7109 124.572 38.2403 124.415 37.9266C123.832 36.7837 123.787 36.4028 123.787 32.0665V28.0553H122.667H121.546V26.3185V24.5818H122.667H123.787V21.1083V17.6349H126.196H128.605V21.1643ZM47.8642 24.7387C49.1191 25.3549 49.7802 26.2065 50.2508 27.8087C50.4188 28.369 50.4524 29.2093 50.4861 34.3635L50.5197 40.2684H48.1555H45.8025V35.0246C45.8025 31.82 45.7577 29.6351 45.6904 29.3774C45.5448 28.862 44.9397 28.3242 44.3235 28.1561C43.5055 27.9432 42.2506 28.2233 41.6904 28.7499L41.4327 28.9852V34.6884V40.3804H39.0236H36.6146V32.4811V24.5818H38.8444C41.4102 24.5818 41.2086 24.4697 41.2086 25.8367C41.2086 26.2625 41.231 26.5986 41.2534 26.5986C41.2758 26.5986 41.6455 26.2513 42.0601 25.8367C42.8108 25.0972 43.6848 24.5482 44.4915 24.3465C44.6932 24.3017 45.3431 24.2681 45.9369 24.2905C46.9342 24.3241 47.1022 24.3577 47.8642 24.7387ZM62.6656 24.5258C63.7637 24.8283 64.7833 25.4333 65.5116 26.2065C66.2287 26.9796 66.4976 27.5734 66.6097 28.6379L66.6769 29.2878H64.3015H61.9373V28.9964C61.9373 28.4586 61.5899 27.932 61.1081 27.7079C59.7636 27.1028 58.1277 27.8424 58.1277 29.0525C58.1277 29.5455 58.7776 30.2402 59.4498 30.4531C59.7412 30.5427 60.5367 30.7556 61.209 30.9125C64.3575 31.6408 65.6685 32.3915 66.3856 33.8705C66.6657 34.4419 66.6993 34.61 66.6993 35.6745C66.6881 36.6829 66.6545 36.9294 66.4192 37.4112C66.0046 38.2627 64.9065 39.3048 63.9317 39.7642C62.5648 40.4141 61.8701 40.5485 59.9765 40.5373C58.5198 40.5261 58.1725 40.4925 57.377 40.246C56.2005 39.8874 55.3489 39.372 54.5534 38.5205C53.7466 37.6577 53.4105 36.963 53.3321 35.977L53.276 35.2263H55.461H57.6459L57.7131 35.6745C57.8027 36.3355 58.0605 36.6717 58.7551 36.9854C59.9428 37.5232 61.209 37.4336 61.9037 36.7389C62.1838 36.4588 62.2734 36.2795 62.2734 35.9546C62.2734 35.0134 61.4331 34.4868 58.912 33.8369C57.0184 33.3663 56.3125 33.0974 55.461 32.5483C54.7214 32.0665 54.3405 31.6184 53.9595 30.7892C53.7578 30.341 53.7018 30.0385 53.7018 29.1757C53.7018 28.2009 53.7354 28.044 54.0604 27.383C54.8223 25.8255 56.1444 24.8059 57.9036 24.4137C58.8672 24.1896 61.7132 24.2681 62.6656 24.5258ZM98.9801 24.5258C101.848 25.03 103.63 26.9908 104.067 30.1281C104.123 30.5539 104.179 31.6071 104.179 32.4475V33.9938H99.686H95.1929L95.2601 34.4083C95.3498 34.9237 96.022 35.9322 96.4702 36.2571C97.5683 37.0302 99.8653 36.963 102.028 36.089L102.689 35.8313L103.204 37.1759C103.484 37.9266 103.753 38.6101 103.787 38.6997C103.832 38.8342 103.619 39.0023 102.98 39.3384C99.2042 41.3553 94.7671 41.0527 92.3693 38.6325C90.7222 36.9854 90.0611 34.9574 90.2068 32.0441C90.3188 29.7808 90.9015 28.0665 92.0444 26.6659C93.5346 24.8171 96.1117 24.0328 98.9801 24.5258ZM115.989 24.649C118.039 25.198 119.485 26.5874 120.168 28.6715C120.437 29.4783 120.46 29.7808 120.516 31.7752L120.56 33.9938H116.067H111.585L111.653 34.3523C111.798 35.1478 112.515 36.0778 113.3 36.4924C113.703 36.7053 113.927 36.7389 115.16 36.7389C116.628 36.7277 117.255 36.6045 118.488 36.0554L119.07 35.8089L119.63 37.2655C119.944 38.0611 120.202 38.7558 120.202 38.8006C120.202 38.935 119.059 39.5737 118.185 39.9098C116.807 40.4589 115.72 40.6494 114.151 40.6381C111.787 40.6269 110.297 40.0779 108.829 38.6773C108.403 38.274 107.877 37.6577 107.675 37.3216C106.779 35.8425 106.42 33.8257 106.633 31.6071C106.79 29.9825 106.991 29.2205 107.552 28.0777C108.549 26.0384 110.252 24.8171 112.639 24.4249C113.255 24.3353 115.317 24.4585 115.989 24.649ZM88.9407 24.6714C88.9407 24.7162 88.1563 28.2457 87.1815 32.5035L85.4336 40.2684H83.3831H81.3327L80.8845 38.8454C80.638 38.0499 80.0777 36.2011 79.6295 34.7221C79.1814 33.243 78.778 31.9993 78.7444 31.9433C78.6995 31.8985 78.0945 33.7585 77.3886 36.0666L76.1113 40.2684L74.0496 40.246L71.9767 40.2124L70.1616 32.4251L68.3576 24.6378L70.5425 24.6042C71.9655 24.593 72.761 24.6154 72.8059 24.6938C72.8395 24.7611 73.2541 26.8451 73.7134 29.3438C74.1616 31.8312 74.5762 33.8369 74.6098 33.7921C74.6546 33.7472 75.2373 31.6632 75.8984 29.1533L77.1197 24.5818H78.6547H80.1898L80.4251 25.3325C80.5483 25.7583 81.1534 27.8087 81.7584 29.904L82.8677 33.7136L82.991 33.0974C83.1366 32.3355 84.5708 24.6378 84.5708 24.5706C84.5708 24.5482 85.5568 24.537 86.7557 24.5594C87.9546 24.5818 88.9407 24.6266 88.9407 24.6714ZM33.7014 32.4811V40.3804H31.2364H28.7713V32.4811V24.5818H31.2364H33.7014V32.4811Z" fill="white"/>
<path d="M96.7284 28.179C96.0561 28.3695 95.4735 29.3107 95.2718 30.4871L95.1934 30.9689H97.3335H99.4736V30.3191C99.4736 29.6244 99.2046 28.9185 98.8237 28.5823C98.3307 28.1342 97.4455 27.9661 96.7284 28.179Z" fill="white"/>
<path d="M113.132 28.1565C112.975 28.2125 112.74 28.3133 112.594 28.3806C112.269 28.5598 111.709 29.7363 111.619 30.4422L111.541 30.9688H113.704H115.866L115.799 30.1957C115.698 29.0304 115.373 28.515 114.521 28.2125C114.051 28.0444 113.569 28.0332 113.132 28.1565Z" fill="white"/>
</g>
</svg>
