<svg width="261" height="18" viewBox="0 0 261 18" fill="none" xmlns="http://www.w3.org/2000/svg">
<path d="M56.9156 4.25056C81.6129 3.75265 106.323 3.43256 131.034 3.2903C155.745 3.14804 180.227 3.19547 204.816 3.42071C218.785 3.55112 232.767 3.72893 246.736 3.96603L248.632 1.53577C216.742 2.02183 184.865 2.62643 152.989 3.34958C121.112 4.07274 89.2358 4.91444 57.3593 5.88654C39.4649 6.43187 21.5839 7.00091 3.6895 7.61736C2.64084 7.65293 1.06786 7.89003 0.476307 8.79101C-0.0749113 9.6327 0.946859 10.0713 1.79385 10.0476C35.0148 9.30076 68.2626 9.22964 101.497 9.8461C134.731 10.4625 167.939 11.7785 201.106 13.7701C219.74 14.8845 238.36 16.2241 256.954 17.7771C257.962 17.8601 259.629 17.4214 260.167 16.6034C260.758 15.7143 259.656 15.4061 258.849 15.3468C225.763 12.5846 192.596 10.4981 159.401 9.09923C126.207 7.70034 92.9599 7.00091 59.7255 6.98905C41.0513 6.98905 22.3771 7.19059 3.70294 7.61736L1.80729 10.0476C33.6704 8.94511 65.5469 7.973 97.4234 7.10759C129.3 6.25405 161.176 5.50718 193.053 4.89073C210.947 4.54693 228.855 4.22685 246.749 3.95419C247.798 3.94233 249.384 3.66966 249.963 2.78054C250.541 1.89143 249.479 1.53577 248.645 1.52392C223.921 1.12085 199.224 0.871894 174.513 0.81262C149.802 0.753345 125.32 0.86004 100.73 1.15641C86.762 1.32238 72.7799 1.54763 58.8113 1.83214C57.7626 1.85585 56.1762 2.11667 55.5981 3.00578C55.0469 3.84749 56.0686 4.28612 56.9156 4.26241V4.25056Z" fill="#D4FF2A"/>
</svg>
