<svg width="25" height="25" viewBox="0 0 25 25" fill="none" xmlns="http://www.w3.org/2000/svg">
<g clip-path="url(#clip0_1_383)">
<path d="M10.1169 4.82617V19.274C10.1018 19.2416 9.95955 18.909 9.81152 18.5338V5.28423C9.93935 5.08004 10.0835 4.8715 10.1169 4.82617ZM11.5936 5.52245V17.708L11.2882 18.0598V5.22803C11.3958 5.31723 11.4984 5.41492 11.5936 5.52245ZM13.0717 7.36562V16.0027C13.061 16.0151 12.7472 16.3778 12.7663 16.3558V7.0615C12.8664 7.16898 12.9678 7.27037 13.0717 7.36562ZM14.5497 8.30373V14.2976C14.539 14.3099 14.2252 14.6726 14.2443 14.6506V8.17178C14.3445 8.21945 14.4458 8.26342 14.5497 8.30373ZM16.0264 8.60054V12.5936C16.0158 12.606 15.702 12.9687 15.721 12.9466V8.57982C15.8212 8.59079 15.9226 8.59689 16.0264 8.60054ZM17.5044 8.46254V10.8897C17.4937 10.9019 17.18 11.2635 17.199 11.2415V8.52001C17.2992 8.50407 17.4006 8.48453 17.5044 8.46254ZM18.9824 8.01667V9.18437L18.677 9.53621V8.12176C18.7591 8.09434 18.7768 8.08075 18.9824 8.01667Z" fill="#F5CA31"/>
<path d="M9.93609 19.6202C8.24189 21.575 9.41465 20.2219 8.79281 20.9394C4.84739 13.8072 6.14456 7.17935 6.8543 4.73149C7.11314 4.84914 7.4024 4.86531 7.66542 4.78769C8.37178 4.57905 9.18122 4.48277 9.89831 4.60689C6.87484 8.59872 7.84964 15.1212 9.93609 19.6202Z" fill="#F5CA31"/>
<path d="M21.755 8.65672L12.7673 21.6228H8.60449C10.6728 19.2371 17.6652 11.1715 20.4785 7.92383C20.8743 8.0264 21.1418 8.23166 21.3128 8.41241C21.4337 8.53944 21.5864 8.6225 21.755 8.65672Z" fill="#F5CA31"/>
<path d="M14.7715 23.2517V24.472C14.7715 24.6857 14.598 24.8592 14.3842 24.8592H5.6946C5.48207 24.8592 5.30859 24.6858 5.30859 24.472V23.2517C5.30859 22.5213 5.90221 21.9277 6.63267 21.9277H13.4473C14.1779 21.9276 14.7715 22.5213 14.7715 23.2517Z" fill="#F5CA31"/>
<path d="M22.3248 8.19472C22.1132 8.41873 21.753 8.43106 21.5333 8.20081C21.1509 7.7965 20.2666 7.20772 18.6469 7.80748C15.78 8.86897 13.7182 8.22161 12.1596 5.77005C10.8892 3.77167 8.53297 4.21268 7.5778 4.49482C7.18203 4.61211 6.76423 4.43253 6.58226 4.06854C6.29769 3.50056 6.09856 2.582 6.76062 1.42891C6.88119 1.2162 7.09751 1.05991 7.35303 1.01477C8.41086 0.826664 11.9752 0.399164 13.403 2.77253C15.0542 5.51318 15.3698 7.35991 17.9726 6.54082C20.6208 5.70653 21.8643 6.78148 22.3699 7.49725C22.5214 7.71222 22.5031 8.00538 22.3248 8.19472Z" fill="#F5CA31"/>
</g>
<defs>
<clipPath id="clip0_1_383">
<rect width="24" height="24" fill="white" transform="translate(0.890625 0.859375)"/>
</clipPath>
</defs>
</svg>
