<svg width="24" height="25" viewBox="0 0 24 25" fill="none" xmlns="http://www.w3.org/2000/svg">
<g clip-path="url(#clip0_1_410)">
<path fill-rule="evenodd" clip-rule="evenodd" d="M5 3.43848H19C20.1046 3.43848 21 4.33391 21 5.43848V19.4385C21 20.5431 20.1046 21.4385 19 21.4385H5C3.89543 21.4385 3 20.5431 3 19.4385V5.43848C3 4.33391 3.89543 3.43848 5 3.43848ZM8 18.4385C8.27614 18.4385 8.5 18.2146 8.5 17.9385V10.9385C8.5 10.6624 8.27614 10.4385 8 10.4385H6.5C6.22386 10.4385 6 10.6624 6 10.9385V17.9385C6 18.2146 6.22386 18.4385 6.5 18.4385H8ZM7.25 9.43848C6.42157 9.43848 5.75 8.76691 5.75 7.93848C5.75 7.11005 6.42157 6.43848 7.25 6.43848C8.07843 6.43848 8.75 7.11005 8.75 7.93848C8.75 8.76691 8.07843 9.43848 7.25 9.43848ZM17.5 18.4385C17.7761 18.4385 18 18.2146 18 17.9385V13.3385C18.0325 11.7493 16.8576 10.393 15.28 10.1985C14.177 10.0977 13.1083 10.6129 12.5 11.5385V10.9385C12.5 10.6624 12.2761 10.4385 12 10.4385H10.5C10.2239 10.4385 10 10.6624 10 10.9385V17.9385C10 18.2146 10.2239 18.4385 10.5 18.4385H12C12.2761 18.4385 12.5 18.2146 12.5 17.9385V14.1885C12.5 13.3601 13.1716 12.6885 14 12.6885C14.8284 12.6885 15.5 13.3601 15.5 14.1885V17.9385C15.5 18.2146 15.7239 18.4385 16 18.4385H17.5Z" fill="#D4FF2A"/>
</g>
<defs>
<clipPath id="clip0_1_410">
<rect width="24" height="24" fill="white" transform="translate(0 0.438477)"/>
</clipPath>
</defs>
</svg>
