<svg width="48" height="56" viewBox="0 0 48 56" fill="none" xmlns="http://www.w3.org/2000/svg">
<g clip-path="url(#clip0_11_114)">
<mask id="mask0_11_114" style="mask-type:luminance" maskUnits="userSpaceOnUse" x="0" y="0" width="48" height="56">
<path d="M47.1719 0.9375H0.171875V55.9375H47.1719V0.9375Z" fill="white"/>
</mask>
<g mask="url(#mask0_11_114)">
<path d="M12.3437 21.4438C21.2532 16.4284 30.1627 11.4131 39.0722 6.39772C41.5984 4.97361 44.1359 3.56075 46.645 2.10287C46.9905 1.90586 47.2737 1.49495 46.8433 1.23039C46.4128 0.96583 45.6538 1.21913 45.2517 1.43866C36.2742 6.34143 27.4044 11.4525 18.4949 16.4678L10.8937 20.7458C10.5313 20.9484 10.2424 21.3875 10.6898 21.6577C11.1373 21.9279 11.9359 21.6746 12.3551 21.4381L12.3437 21.4438Z" fill="#D4FF2A"/>
<path d="M44.9799 1.85457C44.827 13.6246 44.5608 25.3946 44.1756 37.159C44.068 40.5195 43.9434 43.88 43.8188 47.2404C43.7848 48.1298 45.9768 47.6907 46.0051 46.9702C46.4582 35.2058 46.7924 23.4414 47.0133 11.6714C47.0756 8.31092 47.1266 4.94484 47.1719 1.58439C47.1832 0.68939 44.9912 1.1397 44.9856 1.85457H44.9799Z" fill="#D4FF2A"/>
<path d="M10.5824 21.4099C19.8828 27.6636 28.3335 35.0375 36.8975 42.2256C39.299 44.2408 41.7175 46.2446 44.1644 48.2091C44.5552 48.5244 45.1839 48.4174 45.6144 48.2316C45.8296 48.1416 46.5886 47.6744 46.1978 47.3592C37.3959 40.2893 29.0132 32.7015 20.0187 25.868C17.5039 23.9598 14.9437 22.1135 12.3213 20.3517C11.7322 19.9577 9.71017 20.8189 10.5824 21.4043V21.4099Z" fill="#D4FF2A"/>
<path d="M44.833 1.53452C38.427 8.59316 32.1343 15.7531 25.9548 23.0032C24.1933 25.069 22.4432 27.146 20.6986 29.2287C20.3588 29.634 20.9875 29.8535 21.2934 29.8704C21.8144 29.8986 22.4035 29.679 22.7377 29.2794C28.8548 21.9731 35.0796 14.7568 41.4233 7.64188C43.2301 5.61548 45.0482 3.5947 46.872 1.57955C47.2345 1.1799 46.5662 0.954744 46.2773 0.937858C45.7392 0.909713 45.1898 1.1405 44.833 1.52889V1.53452Z" fill="#D4FF2A"/>
<path d="M42.3008 2.96938C38.5512 11.3733 34.9716 19.8617 31.5845 28.4176C30.6216 30.8437 29.6757 33.2754 28.7411 35.7127C28.5599 36.1799 29.4435 36.2024 29.687 36.1799C30.1458 36.1292 30.7519 35.9097 30.9331 35.4425C34.2239 26.8472 37.6903 18.3194 41.3436 9.87041C42.3801 7.4725 43.4279 5.08585 44.4928 2.69919C44.6967 2.23762 43.7678 2.20948 43.5469 2.23199C43.0654 2.28828 42.5104 2.50781 42.3008 2.96938Z" fill="#D4FF2A"/>
<path d="M28.4918 35.2006C26.9456 37.4803 25.286 39.67 23.6661 41.899C23.3772 42.2931 23.9096 42.4957 24.2268 42.5069C24.7196 42.5238 25.2803 42.3325 25.5975 41.9441C27.3364 39.8051 28.9166 37.5254 30.4629 35.2457C30.7404 34.8348 30.225 34.6377 29.8908 34.6265C29.4264 34.6152 28.7694 34.7897 28.4918 35.2006Z" fill="#D4FF2A"/>
<path d="M21.4061 30.0562C21.9216 34.6325 22.3067 39.2482 22.9977 43.8076C23.1053 44.5168 25.1331 44.0102 25.0764 43.2559C24.7252 38.6571 24.0682 34.0696 23.5471 29.4876C23.4678 28.784 21.3155 29.2569 21.4061 30.0562Z" fill="#D4FF2A"/>
<path d="M26.5207 42.9069C27.478 42.0344 28.4692 41.2013 29.4943 40.4077C30.5195 39.614 31.573 38.9441 32.6435 38.1617C32.9607 37.9253 32.8984 37.5651 32.5416 37.4469C32.0885 37.2949 31.5277 37.4469 31.1312 37.6776C29.9588 38.3531 28.8543 39.1974 27.7838 40.0193C26.7133 40.8411 25.7391 41.6685 24.7706 42.5523C24.6516 42.6592 24.5043 42.845 24.5553 43.0195C24.6063 43.194 24.8215 43.284 24.9801 43.3178C25.4729 43.4248 26.1469 43.2503 26.5264 42.9069H26.5207Z" fill="#D4FF2A"/>
<path d="M28.4865 39.6474C29.1605 39.0058 29.8402 38.3697 30.5142 37.7224C30.6218 37.6154 30.7578 37.4578 30.7124 37.2889C30.6671 37.1201 30.4689 37.0413 30.3216 37.0131C30.0724 36.9681 29.8062 36.985 29.5683 37.0582C29.3304 37.1313 29.0755 37.2214 28.8943 37.3959C28.209 38.032 27.5293 38.6736 26.8496 39.3153C26.7363 39.4223 26.6004 39.5855 26.6457 39.7544C26.691 39.9233 26.8949 40.0077 27.0422 40.0358C27.2914 40.0809 27.5633 40.064 27.8068 39.9908C28.0504 39.9176 28.3052 39.8219 28.4865 39.6474Z" fill="#D4FF2A"/>
<path d="M25.9207 40.7L25.7168 40.8013C25.4902 40.9139 25.864 40.7281 25.6828 40.8182L26.8949 41.398C28.0277 40.1709 29.2058 38.9888 30.4066 37.8236C30.5142 37.7167 30.6501 37.559 30.6048 37.3902C30.5595 37.2213 30.3612 37.1425 30.214 37.1144C29.7552 37.0299 29.1322 37.165 28.781 37.4971C27.5632 38.6398 26.3964 39.8388 25.2693 41.0715C25.1787 41.1728 25.0088 41.3417 25.0711 41.5049C25.122 41.64 25.2353 41.7075 25.3712 41.7526C25.813 41.8933 26.3228 41.7526 26.7136 41.5331C26.8665 41.4486 27.0195 41.3754 27.1667 41.2966C27.4443 41.1503 27.7615 40.7056 27.3423 40.5142C26.8835 40.3116 26.3341 40.4917 25.915 40.7H25.9207Z" fill="#D4FF2A"/>
<path d="M29.6476 38.8933C30.0894 38.1897 30.5312 37.4861 30.956 36.7712C31.0353 36.6305 31.0692 36.4842 30.956 36.3491C30.8427 36.214 30.5708 36.1689 30.4009 36.1689C30.129 36.1689 29.8458 36.214 29.5966 36.3266C29.3927 36.4166 29.1718 36.5348 29.0472 36.7262C28.5884 37.4242 28.1523 38.1391 27.7105 38.8483C27.6255 38.989 27.5972 39.141 27.7105 39.2761C27.8238 39.4112 28.1013 39.4562 28.2712 39.4562C28.5488 39.4562 28.8376 39.4112 29.0868 39.293C29.2907 39.2029 29.523 39.0847 29.6476 38.8877V38.8933Z" fill="#D4FF2A"/>
<path d="M29.3477 37.5595C29.6535 37.931 29.9594 38.3025 30.2766 38.6684C30.3389 38.7303 30.4182 38.7753 30.5088 38.7922C30.6108 38.8316 30.7184 38.8485 30.8317 38.8485C30.9676 38.8485 31.0979 38.8373 31.2281 38.8091C31.3697 38.7866 31.5057 38.7472 31.636 38.6909L31.8682 38.5727C31.9928 38.4995 32.1004 38.4095 32.1854 38.2913L32.2533 38.1449C32.276 38.0436 32.2533 37.9535 32.1797 37.8747C31.8852 37.4976 31.5793 37.1261 31.2791 36.7602C31.2112 36.6927 31.1375 36.6533 31.0469 36.6364C30.9449 36.597 30.8317 36.5801 30.7184 36.5801C30.5824 36.5801 30.4465 36.5913 30.3162 36.6195C30.1746 36.642 30.0387 36.6814 29.9028 36.7377L29.6705 36.8559C29.5459 36.9291 29.4383 37.0248 29.3477 37.1373L29.2741 37.2893C29.2514 37.3963 29.2741 37.4863 29.3477 37.5651V37.5595Z" fill="#D4FF2A"/>
<path d="M3.00425 29.2223L0.376143 31.8341C0.268527 31.941 0.132591 32.093 0.177903 32.2619C0.223215 32.4195 0.421455 32.5096 0.563056 32.5321C0.806608 32.5771 1.06715 32.5602 1.30505 32.4871C1.54294 32.4139 1.79782 32.3294 1.96774 32.1549L4.60149 29.5431C4.70912 29.4362 4.84506 29.2842 4.79974 29.1153C4.75443 28.9577 4.55619 28.8677 4.41459 28.8452C4.17104 28.8001 3.91049 28.817 3.6726 28.8902C3.43472 28.9634 3.17984 29.0478 3.00992 29.2223H3.00425Z" fill="#D4FF2A"/>
<path d="M11.3525 33.8328L6.56071 38.6005C6.45309 38.7075 6.31716 38.8594 6.36247 39.0339C6.40778 39.1916 6.60602 39.2816 6.75328 39.3098C7.20074 39.3942 7.84078 39.2647 8.17495 38.9326L12.9724 34.1649C13.08 34.058 13.216 33.9004 13.1706 33.7315C13.1253 33.5683 12.9271 33.4838 12.7798 33.4557C12.3324 33.3713 11.6867 33.5007 11.3525 33.8385V33.8328Z" fill="#D4FF2A"/>
<path d="M28.2087 45.8276C26.7135 47.4656 25.2182 49.1092 23.7285 50.7473C23.6209 50.8598 23.4793 51.0062 23.5303 51.1807C23.5756 51.3439 23.7795 51.4284 23.9211 51.4565C24.3516 51.5353 25.0369 51.4171 25.3541 51.0737C26.8551 49.4357 28.3503 47.7921 29.8456 46.1541C29.9533 46.0359 30.0949 45.8951 30.0496 45.715C30.0042 45.5518 29.8003 45.4617 29.6531 45.4336C29.2169 45.3548 28.5259 45.473 28.2087 45.8163V45.8276Z" fill="#D4FF2A"/>
<path d="M42.5844 50.8941C41.0891 52.3295 39.5995 53.7648 38.1042 55.2002C37.9966 55.3071 37.855 55.4648 37.9003 55.6336C37.9456 55.8025 38.1495 55.8869 38.2968 55.9094C38.7556 55.9939 39.3843 55.8588 39.7354 55.5267C41.2364 54.0913 42.7317 52.6559 44.227 51.2206C44.3403 51.1136 44.4762 50.9504 44.4309 50.7815C44.3856 50.6126 44.1817 50.5282 44.0344 50.5001C43.57 50.4156 42.9356 50.5507 42.5844 50.8885V50.8941Z" fill="#D4FF2A"/>
</g>
</g>
<defs>
<clipPath id="clip0_11_114">
<rect width="47" height="55" fill="white" transform="translate(0.171875 0.9375)"/>
</clipPath>
</defs>
</svg>
