<svg width="140" height="57" viewBox="0 0 140 57" fill="none" xmlns="http://www.w3.org/2000/svg">
<path d="M49.6152 37.735H53.7738V30.6059H55.5819L59.9989 37.735H64.4416L59.5598 29.8827C61.7295 29.237 63.3568 27.7646 63.3568 24.975V24.8717C63.3568 21.0489 60.593 19.2666 56.2277 19.2666H49.6152V37.735ZM53.7738 27.7646V22.4695H56.1244C58.1391 22.4695 59.2757 23.1153 59.2757 25.0008V25.1042C59.2757 26.8865 58.2167 27.7646 56.1244 27.7646H53.7738Z" fill="white"/>
<path d="M71.579 38.0191C75.2726 38.0191 77.5973 36.3919 78.0364 33.473H74.4977C74.2652 34.6096 73.4129 35.3587 71.6823 35.3587C69.6417 35.3587 68.4277 34.0672 68.3244 31.82H78.0623V30.7868C78.0623 25.9565 74.9627 23.916 71.4756 23.916C67.5495 23.916 64.5273 26.6798 64.5273 30.9417V31.1483C64.5273 35.462 67.4978 38.0191 71.579 38.0191ZM68.376 29.5211C68.6601 27.6097 69.7967 26.499 71.4756 26.499C73.2579 26.499 74.2911 27.4805 74.4203 29.5211H68.376Z" fill="white"/>
<path d="M79.8428 37.7352H83.5623V18.1045H79.8428V37.7352Z" fill="white"/>
<path d="M90.6982 38.0187C92.9198 38.0187 94.2883 36.9855 94.9857 35.6166V37.7346H98.7053V24.2256H94.9857V32.1554C94.9857 34.1443 93.7458 35.1258 92.1708 35.1258C90.5696 35.1258 89.8197 34.2476 89.8197 32.4137V24.2256H86.1006V32.9303C86.1006 36.4689 88.0636 38.0187 90.6982 38.0187Z" fill="white"/>
<path d="M101.244 37.735H104.99V29.7536C104.99 27.9197 106.152 26.9897 107.598 26.9897C108.916 26.9897 109.717 27.7646 109.717 29.4953V37.735H113.436V29.7536C113.436 27.9197 114.598 26.9897 116.045 26.9897C117.388 26.9897 118.163 27.7646 118.163 29.4953V37.735H121.883V29.082C121.883 25.4916 119.946 23.916 117.44 23.916C115.735 23.916 113.979 24.6392 112.894 26.2665C112.248 24.6651 110.905 23.916 109.123 23.916C107.108 23.916 105.661 25.0267 104.99 26.2923V24.2259H101.244V37.735Z" fill="white"/>
<path d="M130.532 38.0191C134.226 38.0191 136.551 36.3919 136.99 33.473H133.451C133.218 34.6096 132.366 35.3587 130.635 35.3587C128.595 35.3587 127.381 34.0672 127.278 31.82H137.016V30.7868C137.016 25.9565 133.916 23.916 130.429 23.916C126.503 23.916 123.48 26.6798 123.48 30.9417V31.1483C123.48 35.462 126.451 38.0191 130.532 38.0191ZM127.33 29.5211C127.614 27.6097 128.751 26.499 130.429 26.499C132.211 26.499 133.245 27.4805 133.374 29.5211H127.33Z" fill="white"/>
<path fill-rule="evenodd" clip-rule="evenodd" d="M35.303 20.3715L35.0519 19.9231C34.728 19.3807 34.2712 18.93 33.7246 18.6136L21.6885 11.6718C21.1435 11.3557 20.5249 11.1886 19.8948 11.1875H19.3746C18.7445 11.1886 18.1259 11.3557 17.5808 11.6718L5.54487 18.6316C5.00132 18.9459 4.5498 19.3974 4.23544 19.941L3.98431 20.3894C3.66816 20.9344 3.50112 21.5531 3.5 22.1831V36.0847C3.50112 36.7148 3.66816 37.3334 3.98431 37.8784L4.23544 38.3268C4.55793 38.8641 5.00762 39.3138 5.54487 39.6363L17.5988 46.578C18.1411 46.9007 18.7616 47.0683 19.3925 47.0623H19.8948C20.5249 47.0612 21.1435 46.8941 21.6885 46.578L33.7246 39.6184C34.2735 39.3111 34.7267 38.8579 35.0339 38.3089L35.303 37.8605C35.6154 37.3139 35.7822 36.6962 35.7873 36.0667V22.1652C35.7863 21.5352 35.6192 20.9165 35.303 20.3715ZM19.3746 14.7749H19.8948L30.4062 20.8378L19.6437 27.0441L8.88125 20.8378L19.3746 14.7749ZM21.4374 42.5781L31.9308 36.5152L32.1998 36.0668V23.9411L21.4374 30.1654V42.5781Z" fill="white"/>
</svg>
