<svg width="90" height="89" viewBox="0 0 90 89" fill="none" xmlns="http://www.w3.org/2000/svg">
<g clip-path="url(#clip0_1_417)">
<mask id="mask0_1_417" style="mask-type:luminance" maskUnits="userSpaceOnUse" x="0" y="-1" width="89" height="89">
<path d="M0.286861 43.5453L40.8326 87.961L88.5343 44.4155L47.9886 -0.000153052L0.286861 43.5453Z" fill="white"/>
</mask>
<g mask="url(#mask0_1_417)">
<path d="M55.3518 70.0133L42.5484 72.1537L36.3525 73.1852C34.1703 73.5478 31.916 73.781 29.7736 74.3253C28.997 74.5179 29.2579 75.2437 29.6505 75.7115C30.1625 76.3228 31.0867 76.8447 31.9 76.7678C34.1229 76.5631 36.3413 76.0643 38.5417 75.6965L44.7376 74.6649L57.5467 72.5308C58.3747 72.3946 58.0355 71.5453 57.6657 71.1025C57.1708 70.51 56.1616 69.8822 55.3455 70.019L55.3518 70.0133Z" fill="#D4FF2A"/>
<path d="M55.0382 51.9964C42.3119 44.8058 29.6452 37.492 16.8343 30.4476C16.3897 30.1994 15.2945 29.6156 14.8881 30.2389C14.5068 30.8395 15.4766 31.6755 15.8916 31.9164C28.5332 39.2531 41.3243 46.3386 54.0568 53.5234C54.5248 53.7847 55.6668 54.3946 56.0867 53.7359C56.4868 53.1182 55.4776 52.2264 55.0387 51.9844L55.0382 51.9964Z" fill="#D4FF2A"/>
<path d="M68.6827 43.3732L66.4873 30.7234L65.409 24.5013C65.0386 22.3608 64.7666 20.1647 64.2446 18.0593C64.0613 17.3431 63.1873 16.7754 62.5501 16.5424C62.2197 16.4193 61.0379 16.1556 61.1073 16.8726C61.3141 19.0476 61.7975 21.2113 62.1736 23.3581L63.252 29.5802L65.4797 42.4415C65.6793 43.5904 68.9775 45.0664 68.6884 43.3795L68.6827 43.3732Z" fill="#D4FF2A"/>
</g>
</g>
<defs>
<clipPath id="clip0_1_417">
<rect width="88.9881" height="88.1406" fill="white" transform="translate(0.287186)"/>
</clipPath>
</defs>
</svg>
