<svg width="48" height="49" viewBox="0 0 48 49" fill="none" xmlns="http://www.w3.org/2000/svg">
<path d="M44.2636 20.5665C44.1779 20.0902 43.7633 19.7437 43.2793 19.7442H24.4433C23.8913 19.7438 23.4436 20.1911 23.4433 20.743C23.4433 20.7435 23.4433 20.7426 23.4433 20.743V28.4805C23.443 29.0325 23.8901 29.4802 24.4421 29.4805C24.4425 29.4805 24.4416 29.4805 24.4421 29.4805H33.914C33.3214 31.202 32.1777 32.68 30.6601 33.6856C28.806 34.8687 26.6422 35.4744 24.4433 35.4258C19.7557 35.3778 15.6274 32.3292 14.202 27.8633L14.2004 27.8608C13.4344 25.6035 13.4344 23.1564 14.2004 20.8991L14.202 20.8966C15.6277 16.4309 19.7558 13.3824 24.4433 13.3341C27.0279 13.2923 29.5256 14.2673 31.3984 16.0489C31.791 16.4255 32.4128 16.4185 32.7968 16.0333L38.5332 10.2969C38.9239 9.90632 38.924 9.27302 38.5334 8.88227C38.525 8.87385 38.5164 8.86555 38.5078 8.85749C34.6994 5.2895 29.6617 3.32795 24.4433 3.38093C16.4979 3.357 9.2258 7.84003 5.6777 14.9493C2.69858 20.8835 2.69858 27.8764 5.6777 33.8106C9.22604 40.92 16.4977 45.4035 24.4433 45.3809C29.5595 45.515 34.5338 43.6892 38.3484 40.277L38.3574 40.2716C42.5351 36.2418 44.8182 30.6361 44.6445 24.8341C44.6441 23.403 44.5167 21.9749 44.2636 20.5665ZM24.4433 5.38093C28.7973 5.33576 33.025 6.84406 36.3672 9.63496L32.0468 13.9551C29.8944 12.2236 27.2055 11.2967 24.4433 11.3341C19.401 11.369 14.8477 14.3576 12.81 18.97L7.84885 15.1227C11.1906 9.09296 17.5494 5.35993 24.4433 5.38093ZM5.44333 24.3809C5.4382 21.8304 5.95065 19.3054 6.94968 16.9586L12.0953 20.949C11.4695 23.1936 11.4695 25.5664 12.0953 27.8109L6.95175 31.7998C5.95908 29.4522 5.44626 26.9298 5.44333 24.3809ZM24.4433 43.3809C17.549 43.4014 11.1902 39.6677 7.84885 33.6372L12.81 29.7899C14.8473 34.4027 19.4008 37.3915 24.4435 37.4258C26.7904 37.4616 29.1053 36.8775 31.1544 35.7325L31.3727 35.902L36.0996 39.5743C32.7644 42.14 28.6499 43.4836 24.4433 43.3809ZM37.6074 38.213L32.8515 34.5196C34.5969 33.0028 35.7741 30.937 36.1894 28.6622C36.2904 28.1199 35.9328 27.5985 35.3906 27.4974C35.33 27.4862 35.2685 27.4804 35.207 27.4805H25.4433V21.7442H42.4277C42.5722 22.7678 42.6447 23.8002 42.6445 24.8341C42.7885 29.7823 40.9791 34.5883 37.6074 38.213Z" fill="#D4FF2A"/>
</svg>
