<svg width="55" height="54" viewBox="0 0 55 54" fill="none" xmlns="http://www.w3.org/2000/svg">
<g clip-path="url(#clip0_1_425)">
<path d="M27.649 0.858396C20.019 8.88608 12.489 16.9808 4.90902 25.042C4.32902 25.6537 5.40902 25.9889 5.95902 25.9973C10.199 26.0559 14.309 24.3884 18.199 23.1482C22.089 21.908 26.129 20.5338 30.059 19.1344C37.919 16.3356 45.549 13.1932 53.199 10.0257L50.809 9.06205C44.119 14.5507 37.669 20.2656 31.109 25.8716C24.549 31.4776 17.989 37.0751 11.429 42.6895C7.72902 45.857 4.02902 49.0245 0.359019 52.2255C-0.220981 52.7283 -0.100981 53.2227 0.739019 53.407C1.57902 53.5914 2.92902 53.2981 3.55902 52.7786C16.809 41.6756 29.809 30.3714 42.919 19.1511C46.619 15.9836 50.399 12.858 54.019 9.62348C54.509 9.18774 54.589 8.72687 53.819 8.49224C52.969 8.23247 51.919 8.51737 51.169 8.85256C44.169 12.0033 36.889 14.7686 29.589 17.3998C25.969 18.707 22.319 19.9639 18.639 21.1622C16.799 21.7656 14.959 22.3521 13.109 22.9303C11.259 23.5085 9.43902 24.1873 7.46902 24.1621L8.51902 25.1174C16.059 17.0478 23.639 9.02015 31.129 0.925433C31.679 0.330479 30.649 0.0288128 30.109 0.00367391C29.239 -0.0382242 28.199 0.280202 27.649 0.858396Z" fill="#D4FF2A"/>
</g>
<defs>
<clipPath id="clip0_1_425">
<rect width="55" height="54" fill="white"/>
</clipPath>
</defs>
</svg>
