<svg width="24" height="25" viewBox="0 0 24 25" fill="none" xmlns="http://www.w3.org/2000/svg">
<g clip-path="url(#clip0_1_406)">
<path d="M20.9728 7.15588C20.5084 7.7754 19.947 8.31581 19.3103 8.75624C19.3103 8.91807 19.3103 9.0799 19.3103 9.25073C19.3154 12.1896 18.1415 15.0076 16.0518 17.073C13.962 19.1384 11.1312 20.2784 8.19405 20.2374C6.49599 20.2431 4.81967 19.8554 3.29642 19.1046C3.21428 19.0687 3.16131 18.9875 3.16162 18.8978V18.7989C3.16162 18.6698 3.26623 18.5652 3.39527 18.5652C5.06442 18.5101 6.67402 17.9314 7.99634 16.9109C6.48553 16.8804 5.12619 15.9854 4.5006 14.6092C4.46901 14.5341 4.47884 14.4478 4.52657 14.3817C4.57429 14.3156 4.653 14.2792 4.73425 14.2856C5.19342 14.3317 5.65718 14.289 6.1002 14.1597C4.43239 13.8135 3.17921 12.4289 2.99986 10.7342C2.99349 10.6529 3.02992 10.5742 3.096 10.5264C3.16207 10.4787 3.24824 10.4688 3.32338 10.5005C3.77094 10.698 4.25409 10.802 4.74324 10.8061C3.28184 9.84694 2.65061 8.02253 3.20655 6.3647C3.26394 6.20361 3.40181 6.0846 3.5695 6.05142C3.73718 6.01823 3.90996 6.07576 4.02432 6.20287C5.99639 8.30173 8.70604 9.55244 11.5819 9.69127C11.5083 9.39733 11.4721 9.09524 11.4741 8.7922C11.501 7.2032 12.4842 5.78769 13.9634 5.20835C15.4425 4.62902 17.1249 5.00051 18.223 6.14892C18.9714 6.00633 19.695 5.75493 20.3707 5.40269C20.4202 5.37179 20.483 5.37179 20.5325 5.40269C20.5634 5.45221 20.5634 5.515 20.5325 5.56452C20.2052 6.314 19.6523 6.9426 18.9509 7.36267C19.5651 7.29144 20.1685 7.14655 20.7482 6.93112C20.797 6.8979 20.8611 6.8979 20.9099 6.93112C20.9508 6.94982 20.9814 6.98559 20.9935 7.0289C21.0056 7.07221 20.998 7.11866 20.9728 7.15588Z" fill="#D4FF2A"/>
</g>
<defs>
<clipPath id="clip0_1_406">
<rect width="24" height="24" fill="white" transform="translate(0 0.438477)"/>
</clipPath>
</defs>
</svg>
