<svg width="140" height="57" viewBox="0 0 140 57" fill="none" xmlns="http://www.w3.org/2000/svg">
<mask id="mask0_1_317" style="mask-type:luminance" maskUnits="userSpaceOnUse" x="3" y="10" width="133" height="36">
<path d="M136 10.6875H3V45.9591H136V10.6875Z" fill="white"/>
</mask>
<g mask="url(#mask0_1_317)">
<path d="M3.04102 19.5381V15.6504H20.2684V19.5381H13.9663V36.6771H9.34312V19.5381H3.04102Z" fill="white"/>
<path d="M24.6688 41.2123C23.8634 41.7425 22.7444 42.0072 21.3116 42.0072C20.8795 42.0072 20.4525 41.9927 20.0307 41.963C19.6082 41.9333 19.1812 41.8991 18.7498 41.8602V38.4147C19.1422 38.4537 19.5447 38.493 19.9572 38.532C20.3693 38.571 20.7815 38.581 21.1939 38.5617C21.7431 38.503 22.1511 38.2866 22.4162 37.9138C22.6766 37.5543 22.8158 37.1211 22.8135 36.6771C22.8135 36.3437 22.7544 36.0288 22.6367 35.7344L17.3066 21.452H21.7535L25.1989 31.8764H25.2576L28.5854 21.452H32.9141L26.5534 38.5617C26.1015 39.7981 25.4733 40.6817 24.6688 41.2123ZM38.3749 21.452V23.3957H38.434C38.9441 22.571 39.592 21.9722 40.3772 21.5994C41.1625 21.2266 42.0265 21.0399 42.9691 21.0399C44.1661 21.0399 45.1968 21.2656 46.0612 21.7171C46.9248 22.169 47.6413 22.7678 48.2109 23.5134C48.78 24.2596 49.2018 25.1284 49.4769 26.1197C49.7517 27.1114 49.8894 28.1469 49.8894 29.227C49.8894 30.248 49.7517 31.2293 49.4769 32.1712C49.2018 33.1139 48.7849 33.9486 48.2254 34.6744C47.6658 35.401 46.9689 35.9806 46.1347 36.412C45.3 36.8434 44.3236 37.0602 43.2045 37.0602C42.2622 37.0602 41.3934 36.8687 40.5981 36.4859C39.8029 36.1031 39.1502 35.5387 38.64 34.7925H38.581V42.2448H34.3993V21.452H38.3749ZM43.8101 33.5119C44.2621 33.246 44.6454 32.8778 44.9291 32.4367C45.2135 31.9949 45.4151 31.4799 45.5328 30.8907C45.6509 30.3015 45.7099 29.703 45.7099 29.0941C45.7104 28.4902 45.6462 27.888 45.5184 27.2978C45.3903 26.709 45.1797 26.1836 44.8849 25.7221C44.597 25.2677 44.2092 24.885 43.7511 24.6031C43.2899 24.319 42.7252 24.1761 42.058 24.1761C41.3704 24.1761 40.7964 24.319 40.3353 24.6031C39.8821 24.88 39.4991 25.2581 39.2162 25.7076C38.9315 26.1595 38.7306 26.6793 38.6125 27.2681C38.4936 27.8695 38.4344 28.4811 38.4358 29.0941C38.4358 29.703 38.4993 30.3015 38.6274 30.8907C38.7547 31.4799 38.9608 31.9949 39.2456 32.4367C39.53 32.8785 39.9083 33.2368 40.3795 33.5119C40.8506 33.7867 41.4198 33.9237 42.0874 33.9237C42.7746 33.9237 43.3486 33.7867 43.8101 33.5119ZM56.5866 33.0252C57.2144 33.6345 58.1181 33.9382 59.2958 33.9382C60.1401 33.9382 60.8663 33.728 61.4752 33.3051C62.0834 32.883 62.4565 32.4363 62.5939 31.9652H66.2751C65.6859 33.7911 64.7826 35.0973 63.5659 35.8818C62.3485 36.6671 60.8763 37.0602 59.1488 37.0602C57.951 37.0602 56.871 36.8687 55.9097 36.4859C54.9474 36.1031 54.1324 35.5584 53.4656 34.8515C52.798 34.1453 52.2827 33.3003 51.9192 32.3194C51.5557 31.3373 51.3745 30.2577 51.3745 29.0796C51.3745 27.9412 51.5609 26.8812 51.9341 25.8996C52.3068 24.9175 52.837 24.0688 53.5243 23.3519C54.2111 22.6357 55.0305 22.0709 55.9832 21.6588C56.9348 21.246 57.99 21.0403 59.1488 21.0403C60.4445 21.0403 61.5732 21.2905 62.5349 21.791C63.4968 22.2918 64.2873 22.9646 64.9055 23.8082C65.524 24.6524 65.9703 25.6148 66.2454 26.6941C66.5202 27.7745 66.6182 28.9032 66.5398 30.0809H55.5559C55.6149 31.435 55.9584 32.4167 56.5866 33.0252ZM61.3133 25.0156C60.8125 24.4657 60.0517 24.1906 59.0315 24.1906C58.3635 24.1906 57.8092 24.3038 57.3674 24.5292C56.9259 24.7557 56.5725 25.0352 56.3077 25.3686C56.0427 25.7024 55.8559 26.0566 55.7486 26.429C55.6402 26.8018 55.5763 27.1356 55.5566 27.43H62.3592C62.1621 26.3696 61.8135 25.5654 61.3133 25.0156ZM66.5918 24.2496V21.452H69.0946V20.2739C69.0946 18.9195 69.5164 17.8105 70.3611 16.9462C71.205 16.0826 72.4814 15.6504 74.1893 15.6504C74.5621 15.6504 74.9356 15.6656 75.3084 15.6946C75.6811 15.7243 76.0446 15.7492 76.3984 15.7685V18.8898C75.8903 18.8302 75.379 18.8007 74.8673 18.8014C74.2977 18.8014 73.8901 18.9344 73.645 19.1995C73.3993 19.4642 73.2771 19.9112 73.2771 20.5394V21.452H76.1627V24.2496H73.2771V36.6771H69.0954V24.2496H66.5918ZM76.7155 25.7663C77.0883 24.775 77.6185 23.9307 78.3057 23.2334C78.9926 22.5373 79.8168 21.9971 80.7792 21.6143C81.7408 21.2311 82.8205 21.0399 84.0186 21.0399C85.2152 21.0399 86.3009 21.2311 87.2732 21.6143C88.2449 21.9971 89.0754 22.5373 89.7612 23.2334C90.4495 23.9307 90.9794 24.775 91.3521 25.7663C91.7241 26.7576 91.9113 27.8622 91.9113 29.0792C91.9113 30.2963 91.7241 31.3956 91.3521 32.3777C90.9794 33.3597 90.4492 34.1984 89.7612 34.8953C89.0751 35.5922 88.2449 36.1272 87.2732 36.5C86.3012 36.8728 85.2152 37.0599 84.0186 37.0599C82.8205 37.0599 81.7408 36.8728 80.7792 36.5C79.8168 36.1272 78.9926 35.5922 78.3057 34.8953C77.6181 34.1984 77.0883 33.3593 76.7155 32.3777C76.342 31.3956 76.1556 30.2966 76.1556 29.0792C76.1556 27.8618 76.342 26.7576 76.7155 25.7663ZM80.5141 30.8606C80.6318 31.4402 80.8326 31.9607 81.1182 32.4215C81.398 32.8787 81.7878 33.2585 82.252 33.5264C82.7228 33.8012 83.3117 33.9382 84.0186 33.9382C84.7255 33.9382 85.3188 33.8012 85.7996 33.5264C86.2804 33.2517 86.664 32.8834 86.9487 32.4215C87.2335 31.9607 87.4351 31.4398 87.5536 30.8606C87.6705 30.2818 87.7303 29.6881 87.7303 29.0792C87.7303 28.4711 87.6709 27.8714 87.5536 27.2826C87.4351 26.6937 87.2335 26.174 86.9487 25.7221C86.664 25.271 86.2804 24.9027 85.7996 24.6175C85.3188 24.3335 84.7255 24.1906 84.0186 24.1906C83.3117 24.1906 82.7228 24.3335 82.252 24.6175C81.7922 24.8911 81.4037 25.2696 81.1182 25.7221C80.8326 26.174 80.6318 26.6937 80.5141 27.2826C80.3961 27.8742 80.3369 28.476 80.3374 29.0792C80.3374 29.6881 80.3964 30.2818 80.5141 30.8606ZM97.3962 21.452V24.2789H97.4548C97.6505 23.8078 97.916 23.3712 98.2498 22.9687C98.5835 22.5662 98.9663 22.2224 99.3985 21.9384C99.8275 21.6551 100.293 21.4321 100.783 21.2757C101.278 21.1178 101.794 21.0383 102.314 21.0399C102.589 21.0399 102.893 21.0893 103.228 21.1869V25.0742C102.993 25.0296 102.758 24.9953 102.521 24.9714C102.256 24.9425 101.991 24.9276 101.725 24.9268C100.959 24.9268 100.311 25.0549 99.7817 25.31C99.2515 25.5654 98.8245 25.9137 98.5011 26.3551C98.177 26.797 97.9457 27.3123 97.8087 27.9011C97.6717 28.49 97.6026 29.1282 97.6026 29.8158V36.6771H93.4213V21.452H97.3962ZM108.659 21.452V23.5134H108.717C109.266 22.7288 109.93 22.1196 110.705 21.6874C111.48 21.2563 112.368 21.0399 113.37 21.0399C114.332 21.0399 115.21 21.2266 116.006 21.5994C116.801 21.9722 117.404 22.6301 117.817 23.5724C118.268 22.9048 118.881 22.316 119.658 21.8055C120.433 21.295 121.35 21.0399 122.411 21.0399C123.216 21.0399 123.962 21.1383 124.649 21.3343C125.336 21.5307 125.925 21.8452 126.416 22.2766C126.906 22.7088 127.289 23.2731 127.565 23.9697C127.839 24.6669 127.976 25.5064 127.976 26.4881V36.6771H123.794V28.0485C123.794 27.538 123.775 27.0572 123.735 26.6054C123.697 26.1543 123.589 25.7618 123.411 25.4277C123.235 25.0943 122.974 24.8292 122.631 24.6324C122.288 24.4364 121.822 24.338 121.233 24.338C120.643 24.338 120.168 24.4512 119.804 24.6766C119.449 24.8937 119.155 25.1979 118.95 25.5602C118.744 25.9237 118.606 26.3358 118.538 26.797C118.469 27.26 118.435 27.7275 118.436 28.1956V36.6771H114.253V28.1369C114.253 27.6851 114.243 27.2388 114.223 26.797C114.203 26.3551 114.121 25.9478 113.973 25.5751C113.826 25.2023 113.58 24.9027 113.238 24.6766C112.893 24.4512 112.388 24.338 111.721 24.338C111.523 24.338 111.264 24.3822 110.939 24.4705C110.615 24.5589 110.302 24.7256 109.997 24.9714C109.694 25.2168 109.433 25.5702 109.217 26.031C109.001 26.4929 108.894 27.0962 108.894 27.8425V36.6771H104.711V21.452H108.659Z" fill="white"/>
<path d="M132.246 10.6875H135.959V45.9591H132.246V10.6875Z" fill="#89C6BE"/>
</g>
</svg>
