<svg width="160" height="49" viewBox="0 0 160 49" fill="none" xmlns="http://www.w3.org/2000/svg">
<g clip-path="url(#clip0_1_213)">
<mask id="mask0_1_213" style="mask-type:luminance" maskUnits="userSpaceOnUse" x="0" y="0" width="160" height="49">
<path d="M160 0.5H0V48.5H160V0.5Z" fill="white"/>
</mask>
<g mask="url(#mask0_1_213)">
<mask id="mask1_1_213" style="mask-type:luminance" maskUnits="userSpaceOnUse" x="112" y="7" width="48" height="34">
<path d="M160 7.5H112V40.726H160V7.5Z" fill="white"/>
</mask>
<g mask="url(#mask1_1_213)">
<path d="M147.604 17.2317C147.604 17.2317 143.712 29.4395 143.395 30.4472C143.279 29.4107 140.425 7.5 140.425 7.5C133.795 7.5 130.249 12.2219 128.375 17.2029C128.375 17.2029 123.647 29.4395 123.243 30.476C123.214 29.5259 122.523 17.3469 122.523 17.3469C122.119 11.243 116.526 7.52879 112 7.52879L117.477 40.726C124.425 40.6972 128.173 36.0041 130.133 31.0231C130.133 31.0231 134.314 20.226 134.487 19.7366C134.515 20.1972 137.485 40.726 137.485 40.726C144.461 40.726 148.209 36.3208 150.227 31.5125L160 7.52879C153.11 7.52879 149.477 12.2219 147.604 17.2317Z" fill="#D4FF2A"/>
</g>
<path d="M40.308 29.7335C39.6733 30.0655 39.4373 30.6268 39.4373 32.1761C39.4373 32.1761 39.7587 31.8655 40.2347 31.6921C40.5813 31.5668 40.8787 31.3761 41.0507 31.2508C41.5853 30.8575 41.6693 30.3521 41.6693 29.5015C41.6693 29.5015 40.7947 29.4775 40.308 29.7335ZM36.548 30.0961C36.0307 30.5521 35.8787 31.2788 35.8787 31.2788L34.1667 37.9121L32.7427 32.4815C32.604 31.9041 32.3547 31.1908 31.9587 30.7081C31.4547 30.0948 30.4307 30.0548 30.3213 30.0548C30.212 30.0548 29.188 30.0948 28.684 30.7081C28.2893 31.1908 28.0387 31.9041 27.9 32.4815L26.476 37.9108L24.764 31.2775C24.764 31.2775 24.6133 30.5508 24.0973 30.0948C23.256 29.3575 22 29.5148 22 29.5148L25.2787 41.9108C25.2787 41.9108 26.36 41.9895 26.9013 41.7135C27.612 41.3508 27.9507 41.0708 28.3813 39.3841C28.764 37.8815 29.836 33.4641 29.936 33.1495C29.9867 32.9948 30.0493 32.6228 30.3227 32.6228C30.6 32.6228 30.6587 32.9935 30.7067 33.1495C30.8053 33.4641 31.88 37.8815 32.2627 39.3841C32.6933 41.0708 33.0307 41.3508 33.7427 41.7135C34.2827 41.9895 35.364 41.9108 35.364 41.9108L38.644 29.5148C38.644 29.5148 37.3867 29.3575 36.548 30.0961ZM41.668 31.5388C41.668 31.5388 41.4627 31.8561 40.9947 32.1175C40.6947 32.2855 40.4067 32.4001 40.096 32.5481C39.5787 32.7961 39.4373 33.0735 39.4373 33.4948V41.9121C39.4373 41.9121 40.264 42.0175 40.8067 41.7415C41.5027 41.3868 41.6627 41.0441 41.6693 39.5015V31.9881L41.668 31.5388ZM49.8413 35.7428L54 29.5561C54 29.5561 52.244 29.2575 51.3747 30.0481C50.8187 30.5548 50.1973 31.4655 50.1973 31.4655L48.6667 33.6721C48.592 33.7868 48.4933 33.9121 48.34 33.9121C48.184 33.9121 48.0867 33.7868 48.0133 33.6721L46.4827 31.4655C46.4827 31.4655 45.86 30.5548 45.304 30.0481C44.4347 29.2575 42.6787 29.5548 42.6787 29.5548L46.8387 35.7428L42.6893 41.9108C42.6893 41.9108 44.5187 42.1428 45.388 41.3508C45.944 40.8441 46.4813 40.0201 46.4813 40.0201L48.0133 37.8148C48.0867 37.7001 48.184 37.5748 48.34 37.5748C48.4947 37.5748 48.592 37.7001 48.6667 37.8148L50.1973 40.0201C50.1973 40.0201 50.7667 40.8441 51.3227 41.3508C52.192 42.1428 53.9893 41.9108 53.9893 41.9108L49.8413 35.7428Z" fill="#F1F7F5"/>
<path d="M0 13.4996C0 18.249 2.76016 22.3542 6.76344 24.299L1.03912 8.61624C0.37352 10.1086 0 11.76 0 13.4996ZM20.1003 12.8943C20.1003 11.4108 19.5674 10.3842 19.111 9.58504C18.5028 8.59608 17.9326 7.75968 17.9326 6.77064C17.9326 5.6676 18.7686 4.64096 19.9474 4.64096C20.0008 4.64096 20.0514 4.64744 20.1028 4.65072C17.9682 2.69456 15.1235 1.5 11.9996 1.5C7.80736 1.5 4.11936 3.6512 1.97352 6.90824C2.25552 6.91752 2.52096 6.92328 2.74592 6.92328C4.00072 6.92328 5.94432 6.77072 5.94432 6.77072C6.59096 6.73264 6.66696 7.6832 6.0208 7.75968C6.0208 7.75968 5.37048 7.83576 4.64776 7.87344L9.01728 20.8717L11.6434 12.9959L9.774 7.87336C9.12736 7.83568 8.5156 7.7596 8.5156 7.7596C7.86896 7.7212 7.94456 6.73256 8.5916 6.77064C8.5916 6.77064 10.5729 6.9232 11.752 6.9232C13.0069 6.9232 14.9504 6.77064 14.9504 6.77064C15.597 6.73256 15.6735 7.68312 15.0269 7.7596C15.0269 7.7596 14.3758 7.83568 13.6539 7.87336L17.9902 20.7724L19.1871 16.7737C19.7956 15.2142 20.1003 13.9213 20.1003 12.8943ZM12.2105 14.5493L8.60984 25.0112C9.68496 25.3273 10.822 25.5 11.9996 25.5C13.3973 25.5 14.7375 25.2588 15.9846 24.8198C15.953 24.7683 15.9231 24.7138 15.8989 24.6543L12.2105 14.5493ZM22.5295 7.74304C22.5813 8.12496 22.6105 8.53488 22.6105 8.9768C22.6105 10.194 22.3822 11.5629 21.6975 13.2746L18.0326 23.8714C21.6004 21.7914 23.9992 17.9265 23.9992 13.4997C23.9992 11.4132 23.4658 9.45184 22.5295 7.74304Z" fill="#F1F7F5"/>
<mask id="mask2_1_213" style="mask-type:luminance" maskUnits="userSpaceOnUse" x="59" y="16" width="44" height="15">
<path d="M103 30.5H59V16.5H103V30.5Z" fill="white"/>
</mask>
<g mask="url(#mask2_1_213)">
<path d="M59.2831 23.171C64.2201 22.4205 69.1618 21.7951 74.1011 21.2865C79.0404 20.7779 84.0219 20.3943 88.9822 20.1191C91.7643 19.9691 94.5463 19.7856 97.3283 19.7773C97.5342 19.7773 97.8501 20.0191 97.9624 20.7112C98.0747 21.4032 97.8665 21.7118 97.7027 21.7201C92.7587 21.9619 87.8147 22.0703 82.8707 22.4372C77.9267 22.8041 72.9476 23.2877 67.9872 23.9047C65.2052 24.2466 62.4255 24.6302 59.6435 25.0471C59.4469 25.0804 59.1357 24.7969 59.0304 24.1382C58.9251 23.4795 59.124 23.1876 59.2831 23.1626V23.171Z" fill="#D4FF2A"/>
<path d="M92.3559 28.6903C94.1178 27.1227 95.875 25.5135 97.6299 23.8375C98.4886 23.0203 99.3449 22.1865 100.201 21.3443C100.798 20.7606 101.816 20.3604 102.054 17.9256L102.703 19.3098C99.0899 19.0096 95.4749 18.6927 91.8622 18.3175C91.668 18.3008 91.3732 18.1007 91.2656 17.442C91.1626 16.8083 91.3522 16.4831 91.5113 16.4914C95.1216 16.7582 98.7296 17.0834 102.34 17.4253C102.49 17.442 103.086 17.8422 102.988 18.8095C102.74 21.2776 101.958 21.9447 101.324 22.57C100.393 23.4872 99.4596 24.3878 98.526 25.28C96.6588 27.056 94.787 28.7737 92.9128 30.4414C92.7116 30.6165 92.4215 30.3497 92.2717 29.8327C92.1337 29.3491 92.1688 28.8571 92.3583 28.6903H92.3559Z" fill="#D4FF2A"/>
</g>
</g>
</g>
<defs>
<clipPath id="clip0_1_213">
<rect width="160" height="48" fill="white" transform="translate(0 0.5)"/>
</clipPath>
</defs>
</svg>
