<svg width="48" height="49" viewBox="0 0 48 49" fill="none" xmlns="http://www.w3.org/2000/svg">
<mask id="mask0_1_203" style="mask-type:luminance" maskUnits="userSpaceOnUse" x="0" y="7" width="48" height="34">
<path d="M48 7.5H0V40.726H48V7.5Z" fill="white"/>
</mask>
<g mask="url(#mask0_1_203)">
<path d="M35.6036 17.2317C35.6036 17.2317 31.7117 29.4395 31.3946 30.4472C31.2793 29.4107 28.4252 7.5 28.4252 7.5C21.7946 7.5 18.2487 12.2219 16.3748 17.2029C16.3748 17.2029 11.6469 29.4395 11.2432 30.476C11.2144 29.5259 10.5225 17.3469 10.5225 17.3469C10.1189 11.243 4.52613 7.52879 0 7.52879L5.47748 40.726C12.4252 40.6972 16.1729 36.0041 18.1333 31.0231C18.1333 31.0231 22.3135 20.226 22.4865 19.7366C22.5153 20.1972 25.4847 40.726 25.4847 40.726C32.4613 40.726 36.209 36.3208 38.227 31.5125L48 7.52879C41.1099 7.52879 37.4775 12.2219 35.6036 17.2317Z" fill="#D4FF2A"/>
</g>
</svg>
