<svg width="140" height="57" viewBox="0 0 140 57" fill="none" xmlns="http://www.w3.org/2000/svg">
<path d="M46.4375 25.1333C46.4375 22.7449 44.1216 20.2113 40.1063 20.2113C35.5956 20.2113 30.648 23.5135 29.8822 30.1123C29.1093 36.7836 33.2628 39.7315 37.4361 39.7315C41.608 39.7315 43.8042 38.1059 46.0346 35.9268C44.1088 33.5013 41.6251 34.6301 41.1554 34.8664C40.6358 35.1268 39.954 35.487 38.569 35.487C36.9521 35.487 35.3124 34.7554 35.3124 31.7534C45.6489 30.7627 46.4375 27.5231 46.4375 25.1333ZM41.3148 25.5333C41.2478 26.2692 40.9461 27.5431 35.7152 28.2434C36.8183 24.3262 38.9221 24.0359 39.8942 24.0359C40.8052 24.0359 41.3859 24.7419 41.3148 25.5333ZM23.8073 26.1695C23.8073 26.1695 21.584 33.1413 21.4117 33.7263C21.3519 33.1413 19.725 20.6184 19.725 20.6184C15.9388 20.6184 13.9134 23.3086 12.8459 26.1667C12.8459 26.1667 10.1414 33.1583 9.92224 33.7433C9.90946 33.1953 9.50661 26.2393 9.50661 26.2393C9.27745 22.7435 6.08627 20.6269 3.5 20.6269L6.61007 39.5991C10.5827 39.5862 12.7092 36.9003 13.8309 34.0479C13.8309 34.0479 16.2093 27.879 16.3075 27.5987C16.3317 27.8662 18.0184 39.5991 18.0184 39.5991C21.9939 39.5991 24.1389 37.084 25.2933 34.3341L30.8715 20.6269C26.943 20.6269 24.8748 23.31 23.8073 26.1695ZM61.0384 20.1857C58.5946 20.1857 56.7114 21.5137 55.1258 23.4765L55.1286 23.4623L56.5378 12.0625C53.2839 12.0625 50.625 14.8951 50.1197 19.0968L47.6445 39.4511C49.5219 39.4511 51.5104 38.9059 52.5836 37.5267C53.5444 38.7607 54.972 39.7443 57.0857 39.7443C62.5728 39.7443 66.3448 33.3661 66.3448 27.378C66.3448 21.9137 63.6859 20.1857 61.0384 20.1857ZM60.5346 29.9643C59.9652 33.3121 58.1049 35.5695 56.3028 35.5695C54.4867 35.5695 53.7195 34.7667 53.7195 34.7667C54.0582 31.8403 54.2831 30.0454 54.945 28.4996C55.6055 26.9539 57.1669 24.4872 58.8009 24.4872C60.3893 24.4872 61.104 26.618 60.5346 29.9643ZM80.1003 20.6284H76.2586L76.2771 20.4277C76.539 17.9197 77.1396 16.6031 79.084 16.4009C80.412 16.2643 81.0127 15.574 81.1521 14.8281C81.2618 14.2431 81.6332 12.1749 81.6332 12.1749C73.9271 12.1308 71.5117 15.4572 70.8953 20.5131L70.881 20.6269L70.8056 20.6298C69.5545 20.6298 68.181 22.0461 67.9403 23.8452L67.8564 24.507H70.4185L68.2678 42.312L67.6159 45.5117L67.8806 45.5203C71.4774 45.3836 73.7919 42.5469 74.3029 38.4163L75.9825 24.507H77.1866C78.3652 24.507 79.7501 23.3257 80.0063 21.3514L80.1003 20.6284ZM100.036 20.2982C95.6095 20.2982 91.4375 23.5562 90.1547 28.6818C88.8737 33.806 90.8215 39.8567 97.3271 39.8567C103.835 39.8567 107.574 33.5497 107.574 28.3132C107.574 23.0737 104.033 20.2982 100.036 20.2982ZM101.831 29.812C101.602 32.1363 100.577 35.6478 97.776 35.6478C94.9629 35.6478 95.3627 31.5271 95.6349 29.5714C95.9271 27.4748 97.1049 24.507 99.6118 24.507C101.876 24.507 102.09 27.1872 101.831 29.812ZM129.434 26.1695C129.434 26.1695 127.211 33.1413 127.04 33.7263C126.979 33.1413 125.352 20.6184 125.352 20.6184C121.566 20.6184 119.542 23.3086 118.473 26.1667C118.473 26.1667 115.77 33.1583 115.551 33.7433C115.538 33.1953 115.135 26.2393 115.135 26.2393C114.906 22.7435 111.713 20.6269 109.128 20.6269L112.237 39.5991C116.21 39.5862 118.338 36.9003 119.459 34.0479C119.459 34.0479 121.838 27.879 121.936 27.5987C121.96 27.8662 123.645 39.5991 123.645 39.5991C127.621 39.5991 129.766 37.084 130.92 34.3341L136.5 20.6269C132.57 20.6269 130.502 23.31 129.434 26.1695ZM83.7156 12.1749L80.4903 38.1885L80.4817 38.1842L79.827 41.4011L80.0903 41.4096C83.5633 41.3669 86.0272 38.3195 86.4912 34.4763L88.354 19.5452C88.9193 14.9975 86.208 12.1749 83.7156 12.1749Z" fill="white"/>
</svg>
