<svg width="140" height="57" viewBox="0 0 140 57" fill="none" xmlns="http://www.w3.org/2000/svg">
<mask id="mask0_1_326" style="mask-type:luminance" maskUnits="userSpaceOnUse" x="3" y="10" width="133" height="37">
<path d="M136 10.6875H3V46.7272H136V10.6875Z" fill="white"/>
</mask>
<g mask="url(#mask0_1_326)">
<path d="M34.2283 35.3847L34.209 35.3243L46.0244 24.4981V19.2773H27.0649V24.4981H38.3939L38.4131 24.5476L26.7021 35.3847V40.6055H46.225V35.3847H34.2283Z" fill="white"/>
<path d="M57.873 18.7852C55.6747 18.7852 53.8905 19.1149 52.5203 19.7744C51.2371 20.351 50.1558 21.2984 49.4153 22.4946C48.7097 23.7012 48.2659 25.0428 48.1129 26.4322L53.8832 27.24C54.092 26.0145 54.5088 25.1453 55.1334 24.6324C55.8433 24.0965 56.718 23.8254 57.6064 23.8658C58.777 23.8658 59.6251 24.1781 60.1509 24.8028C60.6729 25.4293 60.9367 26.2948 60.9367 27.4351V28.0012H55.389C52.5734 28.0012 50.5493 28.6267 49.3164 29.8779C48.0836 31.129 47.469 32.7777 47.4727 34.8239C47.4727 36.9232 48.0873 38.4848 49.3164 39.5088C50.5456 40.5328 52.0907 41.042 53.9519 41.0366C56.26 41.0366 58.036 40.2425 59.2798 38.6542C60.0146 37.6777 60.5394 36.5598 60.8213 35.3707H61.0301L61.8242 40.5914H67.045V27.3774C67.045 24.648 66.3251 22.5331 64.8853 21.0328C63.4454 19.5326 61.108 18.7833 57.873 18.7852ZM59.6947 35.0684C58.8704 35.7581 57.785 36.1016 56.4359 36.1016C55.3221 36.1016 54.5491 35.9065 54.1168 35.5163C53.8221 35.2297 53.6155 34.8647 53.5216 34.4645C53.4276 34.0642 53.4501 33.6455 53.5864 33.2576C53.6804 33.0106 53.8223 32.7846 54.0041 32.5927C54.2028 32.4081 54.4363 32.2652 54.691 32.1723C54.9457 32.0785 55.217 32.0383 55.4879 32.0541H60.934V32.4141C60.9442 32.9218 60.8378 33.4252 60.623 33.8853C60.4082 34.3455 60.0906 34.7503 59.6947 35.0684Z" fill="white"/>
<path d="M98.5812 19.2822H92.418V40.6021H98.5812V19.2822Z" fill="white"/>
<path d="M134.965 19.2823C133.224 19.2823 131.85 19.896 130.843 21.1233C130.123 22.0081 129.573 23.3133 129.194 25.0389H129.013L128.208 19.2686H122.954V40.5857H129.126V29.6661C129.126 28.294 129.446 27.2416 130.087 26.5089C130.728 25.7762 131.919 25.4098 133.659 25.4098H135.995V19.2823H134.965Z" fill="white"/>
<path d="M116.84 19.9777C115.4 19.1241 113.586 18.6973 111.397 18.6973C107.948 18.6973 105.248 19.6791 103.299 21.6429C101.35 23.6066 100.376 26.3141 100.376 29.7653C100.327 31.8505 100.782 33.9168 101.703 35.7884C102.55 37.4588 103.868 38.844 105.495 39.7726C107.127 40.7142 109.069 41.1868 111.32 41.1905C113.265 41.1905 114.891 40.89 116.197 40.2892C117.425 39.7513 118.494 38.9074 119.302 37.8382C120.072 36.788 120.643 35.6064 120.989 34.3513L115.661 32.8647C115.437 33.6807 115.006 34.4252 114.411 35.0272C113.81 35.6262 112.803 35.9257 111.389 35.9257C109.713 35.9257 108.463 35.4458 107.641 34.4859C107.044 33.7935 106.668 32.8043 106.503 31.5183H121.042C121.102 30.9193 121.132 30.4165 121.132 30.0098V28.6826C121.168 26.8997 120.8 25.1317 120.055 23.5113C119.365 22.0361 118.244 20.8043 116.84 19.9777ZM111.218 23.7806C113.717 23.7806 115.134 25.0098 115.469 27.4681H106.63C106.77 26.6482 107.109 25.8753 107.619 25.2177C108.43 24.256 109.63 23.777 111.218 23.7806Z" fill="white"/>
<path d="M95.5664 10.6905C95.1026 10.6746 94.6404 10.752 94.207 10.9182C93.7737 11.0843 93.3782 11.3358 93.044 11.6577C92.7159 11.9834 92.4587 12.3734 92.2885 12.8033C92.1182 13.2331 92.0387 13.6934 92.0548 14.1554C92.0386 14.6208 92.1185 15.0845 92.2893 15.5177C92.4601 15.9509 92.7182 16.3443 93.0476 16.6735C93.377 17.0026 93.7706 17.2604 94.2039 17.4309C94.6373 17.6014 95.101 17.6808 95.5664 17.6643C96.0284 17.6821 96.489 17.6026 96.9183 17.4308C97.3484 17.2608 97.7385 17.0035 98.0641 16.6751C98.3862 16.3414 98.6376 15.946 98.8033 15.5128C98.9698 15.0804 99.0465 14.6185 99.0286 14.1554C99.0504 13.6953 98.9755 13.2357 98.8088 12.8063C98.6444 12.3818 98.3947 11.9956 98.0751 11.6715C97.7482 11.3468 97.3582 11.0924 96.9293 10.9241C96.4997 10.7581 96.0402 10.6833 95.5802 10.7043L95.5664 10.6905Z" fill="white"/>
<path d="M82.8335 18.6973C80.7342 18.6973 79.048 19.3567 77.7748 20.6757C76.8296 21.6502 76.1372 23.1074 75.6975 25.0473H75.4997L74.6946 19.277H69.4326V46.7135H75.5931V35.4257H75.8184C76.0067 36.183 76.2709 36.9195 76.607 37.6239C77.1272 38.7667 77.9818 39.7248 79.058 40.3716C80.1728 40.9809 81.4289 41.2843 82.6988 41.2509C85.2781 41.2509 87.2427 40.2434 88.5928 38.2284C89.9428 36.2133 90.6179 33.406 90.6179 29.8065C90.6179 26.326 89.9648 23.6048 88.6587 21.6429C87.3526 19.681 85.4109 18.6991 82.8335 18.6973ZM83.46 34.1452C82.74 35.1857 81.6153 35.7068 80.0857 35.7087C79.4558 35.7369 78.8283 35.6148 78.2549 35.3525C77.6816 35.0902 77.1789 34.6952 76.7884 34.2001C75.9915 33.1963 75.594 31.8224 75.5959 30.0785V29.6718C75.5959 27.9023 75.9934 26.5485 76.7884 25.6106C77.5834 24.6727 78.6825 24.2084 80.0857 24.2175C81.6428 24.2175 82.7748 24.7121 83.4819 25.7013C84.189 26.6905 84.5417 28.0699 84.5398 29.8394C84.5398 31.6713 84.1817 33.1038 83.4654 34.137L83.46 34.1452Z" fill="white"/>
<path d="M24.3201 35.3848H3.00293V40.6055H24.3201V35.3848Z" fill="#FF4F00"/>
</g>
</svg>
